<svg xmlns="http://www.w3.org/2000/svg" viewBox="0 0 1800 1800" width="1800" height="1800"><g transform="translate(605.0 1439.0) rotate(0.0 306.5 54.0) scale(1.0016339869281046 1.0)"><svg width="612" height="108" viewBox="0 0 612 108"><ellipse cx="306" cy="54" fill="#cbc8ff" rx="306" ry="54"/></svg></g><g transform="translate(496.0 1138.0) rotate(0.0 414.5 211.0) scale(1.0041729503182708 1.0025086472309857)"><svg width="825.555" height="420.944" viewBox="0 0 825.555 420.944"><path d="M824.555 215c0 8.97-.48 17.51-1.43 25.63v.01c-16.58 143.48-174.91 157.61-310.84 140.89-3.93-.49-7.84-1-11.73-1.53-72-45-336-58-336-58l-160-132c26-126 166-133 254-135 34-41 92-54 152-54 49 0 112 20 136 56 54-6 278-14 278 158z" fill="#ffa9dc"/><path d="M596.982 388.077c-26.37 0-54.725-1.853-84.82-5.555-3.947-.492-7.897-1.008-11.743-1.531a1.002 1.002 0 0 1-.395-.144c-70.958-44.349-332.882-57.719-335.52-57.849a1.003 1.003 0 0 1-.587-.228L3.918 190.771a1 1 0 0 1-.343-.974c6.127-29.694 19.097-54.749 38.549-74.469 16.798-17.029 38.95-30.578 65.842-40.27 48.041-17.314 102.64-19.961 150.111-21.049C288.032 18.17 339.329 0 410.555 0c47.87 0 111.8 19.599 136.492 55.94 18.746-2.022 159.456-14.673 233.619 51.708 29.786 26.659 44.889 62.777 44.889 107.352 0 8.922-.482 17.572-1.433 25.712 0 .015-.002.03-.004.044-4.98 43.103-23.188 77.298-54.118 101.636-28.433 22.372-67.926 36.701-117.383 42.586-17.37 2.067-35.95 3.1-55.635 3.1zm-96.081-9.039c3.771.514 7.642 1.018 11.507 1.5 81.221 9.991 191.631 11.21 256.354-39.719 30.488-23.989 48.442-57.721 53.365-100.261l.004-.045c.944-8.073 1.423-16.657 1.423-25.514 0-43.98-14.878-79.598-44.223-105.861-74.378-66.572-216.686-52.919-232.667-51.145a1.015 1.015 0 0 1-.942-.439C521.666 21.471 458.126 2 410.555 2c-70.834 0-121.715 18.047-151.23 53.639a1.002 1.002 0 0 1-.748.361c-47.419 1.077-102.022 3.673-149.934 20.94C50.882 97.759 17.189 134.616 5.657 189.612l159.279 131.405c5.174.266 69.268 3.657 140.737 12.114 99.479 11.771 165.16 27.216 195.229 45.906z" fill="#112c41"/><path d="M823.125 240.64c-16.58 143.48-174.91 157.61-310.84 140.89 7.64-7.91 28.27-18.53 28.27-18.53 88 7 252 11 282.57-122.36zM147.555 190c40 19 99.696 12.657 137 9 44.452-4.358 107.896-18.592 123.455-22.175a10.52 10.52 0 0 1 6.717.68c9.771 4.43 41.51 17.376 86.828 21.496 47.657 4.332 111 24 178.045-3.122-31.089 15.245-35.045 21.699-86.545 24.911s-130.5-4.788-130.5-4.788-35 21-40 25-116 16-120 15-40-5-49-11-91-29-91-29l-15-26z" fill="#ff90d8"/><path d="M596.762 388.034c-33.474 0-66.637-2.975-96.343-7.043a.998.998 0 0 1-.394-.144c-70.958-44.349-332.882-57.719-335.52-57.849a1.003 1.003 0 0 1-.587-.228l-160-131.999a1 1 0 0 1-.343-.974c6.127-29.694 19.097-54.749 38.549-74.469 16.798-17.029 38.95-30.578 65.842-40.27 48.041-17.314 102.64-19.961 150.111-21.049C288.032 18.17 339.329 0 410.555 0c47.87 0 111.8 19.599 136.492 55.94 18.746-2.022 159.456-14.673 233.619 51.708 29.786 26.659 44.889 62.777 44.889 107.352 0 52.541-16.75 93.794-49.786 122.612-44.232 38.587-112.236 50.422-179.007 50.422zm-95.86-8.996c88.527 12.104 207.763 14.458 273.553-42.933 32.581-28.422 49.1-69.167 49.1-121.105 0-43.98-14.878-79.598-44.223-105.861-74.378-66.572-216.686-52.919-232.667-51.145a1.015 1.015 0 0 1-.942-.439C521.666 21.471 458.126 2 410.555 2c-70.834 0-121.715 18.047-151.23 53.639a1.002 1.002 0 0 1-.748.361c-47.419 1.077-102.022 3.673-149.934 20.94C50.882 97.759 17.189 134.616 5.657 189.612l159.279 131.405c5.174.266 69.268 3.657 140.737 12.114 99.479 11.771 165.161 27.216 195.229 45.906z" fill="#112c41"/><path d="M523.369 226.316s-6.528 87.906-6.353 141.903c.014 5.22.094 10.112.248 14.589-12.797-2.304-23.526-5.918-36.644-8.331a170.729 170.729 0 0 1-12.164-2.756c-16.093-4.203-30.347-9.945-30.347-9.945l8.248-140.429a819.816 819.816 0 0 0 38.992 2.995c.075.011.148.011.214.025.095.005.17.016.233.019 13.326.708 26.269 1.417 37.572 1.931z" fill="#ffd6c0"/><path d="M517.017 368.219c.014 5.22.094 10.112.248 14.589-12.797-2.304-23.526-5.918-36.644-8.331a170.729 170.729 0 0 1-12.164-2.756l-6.973-15.989 54.678 10.377s.315.774.855 2.109z" fill="#f5b9ab"/><path d="m517.43 383.422-1.219-.22c-45.348-8.165-78.122-20.367-78.448-20.489l-.69-.26.043-.735 8.303-141.47 1.037.104c13.017 1.308 25.393 2.259 38.949 2.991l.271.027c-.004-.006.073.003.142.01l5.35.287c11.55.618 22.459 1.201 32.25 1.652l1.037.048-.086 1.034c-.087 1.05-8.7 105.633-6.98 155.781l.042 1.238zm-78.273-22.329c4.894 1.771 35.269 12.45 76.192 19.92-1.461-47.989 6.054-142.778 6.942-153.742-9.529-.444-20.082-1.009-31.229-1.605l-5.804-.326a829.18 829.18 0 0 1-37.964-2.893z" fill="#112c41"/><path d="M347.691 381.644c.762 12.919 2.434 25.378 5.165 37.065 48.475-5.276 79.155-47.565 85.256-56.931-.01-.08.334-6.11.875-15.541 1.987-34.312 6.672-113.546 6.672-113.546l.699-11.341c-25.434-3.776-67.382-12.046-67.382-12.046-5.438 12.885-10.514 27.35-14.949 42.764-11.642 40.461-18.827 87.428-16.337 129.576z" fill="#b2b0f7"/><path d="M352.855 419.709a1 1 0 0 1-.973-.772c-2.657-11.369-4.403-23.897-5.189-37.233-2.308-39.056 3.507-85.192 16.374-129.911 4.417-15.348 9.459-29.773 14.989-42.876a1.002 1.002 0 0 1 1.115-.593c.419.083 42.216 8.309 67.335 12.038a1 1 0 0 1 .851 1.051l-.699 11.341c-.047.79-4.708 79.624-6.672 113.542-.47 8.184-.859 14.999-.874 15.476.001.195-.054.389-.162.554-5.623 8.631-36.192 51.96-85.986 57.379a1.01 1.01 0 0 1-.109.006zm26.729-209.267c-5.375 12.83-10.284 26.923-14.595 41.902-12.806 44.507-18.594 90.405-16.3 129.241.76 12.885 2.422 25 4.94 36.028 48.767-5.797 79.458-50.019 83.498-56.156.042-.947.221-4.1.862-15.278 1.965-33.92 6.626-112.755 6.673-113.547l.643-10.429c-23.293-3.502-59.865-10.615-65.721-11.762z" fill="#360815"/><path d="M363.013 283.17c-2.148 0-4.271-.096-6.361-.29-1.375-.128-2.386-1.346-2.258-2.721s1.347-2.373 2.721-2.258c32.387 3.017 75.052-20.258 83.685-55.912a2.499 2.499 0 1 1 4.859 1.176c-4.331 17.886-16.768 34.049-35.02 45.512-14.905 9.361-31.925 14.493-47.626 14.493z" fill="#fff"/><path d="M347.691 381.644c.762 12.919 2.434 25.378 5.165 37.065 48.475-5.276 79.155-47.565 85.256-56.931-.01-.08.334-6.11.875-15.541l-4.4.004c-31.527 34.46-63.998 44.221-86.896 35.403z" fill="#9797f7"/><path d="M352.853 419.705a1 1 0 0 1-.973-.772c-10.356-44.317-6.174-106.802 11.188-167.145 4.429-15.378 9.471-29.803 14.987-42.874a1.004 1.004 0 0 1 1.115-.593c.419.083 42.216 8.31 67.333 12.037a1 1 0 0 1 .851 1.051l-.697 11.341c-.075 1.267-7.484 126.638-7.542 129.008.003.199-.052.396-.162.564-5.622 8.632-36.188 51.964-85.991 57.377a1.01 1.01 0 0 1-.109.006zm26.731-209.265c-5.363 12.801-10.271 26.893-14.593 41.9-17.159 59.638-21.391 121.323-11.363 165.27 48.827-5.798 79.527-50.11 83.515-56.174.116-2.648 1.049-19.35 7.519-128.807l.641-10.429c-23.291-3.5-59.862-10.614-65.718-11.761z" fill="#112c41"/><path d="M329.72 419.658c-1.59-.147-2.957-.828-3.915-2.329-17.449-27.327-5.83-149.858 22.037-206.706 2.387-4.87 5.476-5.617 8.796-5.447l22.341 4.127c-24.091 57.137-41.155 145.067-26.124 209.403-7.945 1.046-15.951 1.619-23.134.953z" fill="#fff"/><path d="M336.256 420.942c-2.356 0-4.56-.097-6.628-.288-2.036-.189-3.606-1.127-4.666-2.787-8.309-13.012-10.656-48.617-6.127-92.922 4.644-45.429 15.152-88.331 28.109-114.763 2.741-5.592 6.464-6.168 9.745-6.006.043.003.087.008.13.016l22.341 4.127a1 1 0 0 1 .74 1.372c-23.197 55.018-41.25 143.82-26.071 208.786.064.275.009.564-.151.797a1.005 1.005 0 0 1-.691.422c-6.314.832-11.847 1.246-16.729 1.246zm-6.444-2.28c5.958.553 13.104.288 21.82-.808-14.729-64.848 2.986-152.713 25.944-207.794l-21.055-3.89c-3.16-.151-5.696.639-7.782 4.893-28.768 58.684-38.622 179.842-22.092 205.728.721 1.129 1.756 1.741 3.165 1.871z" fill="#112c41"/><path d="M446.361 221.348c-12.286 41.126-14.824 101.586-8.246 140.428 0 0 28.523 9.624 42.508 12.696-3.84-35.934-2.462-101.545 5.46-150.06 0 0-.1-.006-.283-.028-.064-.006-.147-.022-.227-.017-.078-.008-.147-.023-.219-.023a834.197 834.197 0 0 1-38.992-2.996z" fill="#fff"/><path d="M480.622 375.473a1.03 1.03 0 0 1-.214-.023c-13.877-3.049-42.327-12.629-42.613-12.726a.999.999 0 0 1-.666-.78c-6.975-41.182-3.417-101.747 8.274-140.881.137-.459.581-.75 1.058-.709a826.729 826.729 0 0 0 38.946 2.992c.033 0 .127.007.222.021.083.002.165.011.24.02.184.022.261.028.275.029a1.006 1.006 0 0 1 .925 1.159c-8.12 49.726-9.149 115.211-5.453 149.792a1.001 1.001 0 0 1-.994 1.107zm-41.621-14.453c3.947 1.32 27.447 9.124 40.482 12.169-3.512-34.801-2.443-98.766 5.438-147.864a833.85 833.85 0 0 1-37.837-2.898c-11.372 38.712-14.833 97.966-8.083 138.594z" fill="#112c41"/><circle cx="411.187" cy="346.536" fill="#ffe993" r="8.5"/><path d="M408.437 347.607c-1.327 15.247 5.292 32.344 9.344 37.403a2.832 2.832 0 1 0 4.421-3.541c-3.111-3.884-9.588-20.207-8.035-34.251a2.832 2.832 0 0 0-5.63-.626c-.038.337-.071.676-.101 1.014z" fill="#fff"/><path d="M419.995 387.07a3.826 3.826 0 0 1-2.995-1.435c-4.169-5.205-10.928-22.394-9.56-38.115.03-.347.064-.693.103-1.039a3.802 3.802 0 0 1 1.415-2.568c.8-.64 1.8-.931 2.817-.816a3.839 3.839 0 0 1 3.385 4.231c-1.522 13.771 4.793 29.734 7.822 33.517a3.839 3.839 0 0 1-.595 5.387 3.823 3.823 0 0 1-2.393.839zm-8.644-41.997c-.92 0-1.715.694-1.82 1.63-.037.329-.069.66-.098.99-1.304 14.979 5.25 31.849 9.128 36.692a1.832 1.832 0 1 0 2.86-2.291c-3.184-3.975-9.831-20.673-8.249-34.985a1.835 1.835 0 0 0-1.822-2.036z" fill="#112c41"/><circle cx="388.793" cy="361.403" fill="#ffe993" r="8.5"/><path d="M386.076 362.555c-.875 15.279 8.11 33.411 12.31 38.348a2.833 2.833 0 0 0 4.315-3.671c-3.224-3.79-12.044-21.152-10.908-35.236a2.831 2.831 0 1 0-5.645-.459c-.028.338-.051.678-.071 1.017z" fill="#fff"/><path d="M400.55 402.901a3.805 3.805 0 0 1-2.925-1.351c-3.942-4.633-13.462-23.054-12.546-39.053.02-.348.044-.696.073-1.042a3.804 3.804 0 0 1 1.338-2.608 3.828 3.828 0 0 1 2.792-.899 3.84 3.84 0 0 1 3.509 4.129c-1.131 14.025 7.71 31.025 10.673 34.508a3.81 3.81 0 0 1 .901 2.792 3.805 3.805 0 0 1-1.337 2.61 3.803 3.803 0 0 1-2.477.914zm-13.475-40.288c-.884 15.436 8.278 33.182 12.073 37.642.317.374.761.601 1.249.64.483.04.962-.112 1.334-.431.373-.317.6-.76.639-1.247a1.822 1.822 0 0 0-.431-1.336c-3.092-3.635-12.321-21.362-11.143-35.964a1.836 1.836 0 0 0-1.678-1.975 1.784 1.784 0 0 0-1.335.43c-.373.316-.6.76-.64 1.247-.027.331-.05.662-.069.994zm176.571-139.594c-22.049 0-43.888-2.149-62.348-7.053a1 1 0 0 1-.709-1.224c.142-.533.691-.85 1.223-.71 54.596 14.504 138.907 4.78 169.633-13.351 6.935-4.092 11.019-8.44 12.14-12.925a1 1 0 0 1 1.941.484c-1.256 5.024-5.651 9.789-13.064 14.163-20.634 12.177-65.133 20.614-108.814 20.614z" fill="#112c41"/><path d="M347.659 220.159s6.612 87.9 6.488 141.897a463.487 463.487 0 0 1-.234 14.589c12.795-2.316 23.521-5.94 36.636-8.366 4.04-.757 8.164-1.709 12.161-2.768 16.089-4.219 30.337-9.974 30.337-9.974l-8.381-140.422a819.856 819.856 0 0 1-38.99 3.032c-.075.011-.148.012-.214.025-.095.005-.17.016-.233.019-13.325.721-26.267 1.442-37.57 1.967z" fill="#ffd6c0"/><path d="M354.146 362.055a463.487 463.487 0 0 1-.234 14.589c12.795-2.316 23.521-5.94 36.636-8.366 4.04-.757 8.164-1.709 12.161-2.768l6.958-15.995-54.668 10.429-.853 2.11z" fill="#f5b9ab"/><path d="m353.747 377.259.041-1.238c1.672-50.15-7.04-154.725-7.128-155.774l-.087-1.034 1.037-.049c9.916-.466 20.979-1.068 32.69-1.707l4.874-.265c.106-.011.177-.017.25-.019l.144-.018c13.595-.75 25.97-1.712 38.998-3.033l1.037-.104 8.481 142.196-.689.26c-.326.123-33.089 12.356-78.429 20.564zm-5.009-156.146c.898 10.963 8.503 105.745 7.088 153.735 40.916-7.509 71.281-18.216 76.173-19.992l-8.269-138.639c-12.681 1.271-24.786 2.204-38 2.931l-.44.04-4.881.266c-11.31.616-22.014 1.199-31.67 1.659z" fill="#112c41"/><path d="M523.485 375.32c-.75 12.92-2.41 25.38-5.13 37.07-48.48-5.23-79.2-47.49-85.31-56.85.01-.08-.34-6.11-.89-15.54-2.02-34.31-6.78-113.54-6.78-113.54l-.71-11.34c25.43-3.8 67.37-12.11 67.37-12.11 5.45 12.88 10.54 27.34 14.99 42.75 11.68 40.45 18.91 87.41 16.46 129.56z" fill="#b2b0f7"/><path d="M518.356 413.39a.977.977 0 0 1-.108-.006c-49.801-5.373-80.41-48.673-86.04-57.298a1.007 1.007 0 0 1-.163-.553c-.015-.491-.447-7.91-.889-15.476-1.997-33.916-6.732-112.746-6.779-113.539l-.71-11.337a1.001 1.001 0 0 1 .85-1.052c25.115-3.753 66.904-12.019 67.324-12.102a.995.995 0 0 1 1.115.591c5.542 13.099 10.599 27.52 15.03 42.862 12.909 44.706 18.768 90.837 16.498 129.896-.774 13.337-2.509 25.866-5.154 37.239a1 1 0 0 1-.973.773zm-84.326-58.172c4.045 6.134 34.776 50.325 83.551 56.078 2.508-11.031 4.158-23.149 4.906-36.034 2.258-38.839-3.574-84.731-16.422-129.226-4.325-14.975-9.246-29.063-14.634-41.889-5.855 1.151-42.42 8.301-65.709 11.824l.653 10.425c.048.795 4.783 79.626 6.78 113.544.653 11.183.834 14.333.877 15.277z" fill="#360815"/><path d="M508.001 276.86c-15.683 0-32.678-5.113-47.571-14.447-18.264-11.446-30.716-27.598-35.063-45.479a2.5 2.5 0 1 1 4.858-1.182c8.667 35.646 51.356 58.883 83.738 55.833 1.382-.111 2.594.881 2.723 2.255a2.502 2.502 0 0 1-2.255 2.724 68.9 68.9 0 0 1-6.43.296z" fill="#fff"/><path d="M523.485 375.32c-.75 12.92-2.41 25.38-5.13 37.07-48.48-5.23-79.2-47.49-85.31-56.85.01-.08-.34-6.11-.89-15.54h4.4c31.56 34.43 64.04 44.16 86.93 35.32z" fill="#9797f7"/><path d="M518.358 413.386a.977.977 0 0 1-.108-.006c-49.809-5.366-80.415-48.669-86.045-57.295a1.007 1.007 0 0 1-.163-.564c-.062-2.384-7.589-127.735-7.666-129.004l-.708-11.337a1 1 0 0 1 .85-1.052c25.113-3.752 66.901-12.018 67.321-12.101a.998.998 0 0 1 1.115.591c5.529 13.066 10.585 27.486 15.028 42.86 17.42 60.327 21.662 122.807 11.348 167.134a1 1 0 0 1-.973.773zm-84.343-58.188c3.993 6.06 34.735 50.343 83.568 56.095 9.986-43.955 5.696-105.637-11.521-165.259-4.336-15.004-9.258-29.092-14.633-41.887-5.854 1.151-42.419 8.301-65.707 11.823l.651 10.425c6.574 109.462 7.523 126.156 7.642 128.803z" fill="#112c41"/><path d="M541.492 413.317c1.59-.149 2.956-.831 3.913-2.333 17.423-27.343 5.688-149.864-22.233-206.685-2.392-4.867-5.482-5.611-8.801-5.438l-22.337 4.148c24.145 57.114 41.293 145.028 26.323 209.378 7.946 1.039 15.953 1.603 23.135.931z" fill="#fff"/><path d="M534.873 414.606c-4.862 0-10.367-.408-16.646-1.229a.998.998 0 0 1-.844-1.218c15.117-64.98-3.021-153.767-26.27-208.762a1.001 1.001 0 0 1 .738-1.373l22.337-4.147c.043-.008.087-.013.131-.016 3.282-.157 7.005.409 9.75 5.996 12.982 26.42 23.531 69.312 28.218 114.735 4.571 44.301 2.257 79.909-6.039 92.929-1.059 1.662-2.627 2.601-4.663 2.791a72.413 72.413 0 0 1-6.712.294zm-15.295-3.072c8.716 1.086 15.863 1.345 21.821.786 1.408-.131 2.443-.744 3.163-1.873 16.504-25.902 6.536-147.051-22.287-205.707-2.089-4.252-4.625-5.027-7.787-4.885l-21.051 3.909c23.01 55.06 40.809 142.907 26.141 207.77z" fill="#112c41"/><path d="M424.662 215.118c12.326 41.114 14.921 101.572 8.38 140.42 0 0-28.514 9.651-42.495 12.737 3.806-35.938 2.365-101.547-5.603-150.054 0 0 .1-.006.283-.029.064-.006.147-.023.227-.017.078-.009.147-.023.219-.023a832.951 832.951 0 0 0 38.989-3.034z" fill="#fff"/><path d="M390.547 369.275a1.002 1.002 0 0 1-.995-1.106c3.664-34.585 2.572-100.068-5.595-149.787a1.002 1.002 0 0 1 .928-1.16c.012 0 .087-.007.215-.023.113-.014.205-.022.289-.024.116-.016.2-.023.285-.023a828.21 828.21 0 0 0 38.888-3.028c.486-.037.921.249 1.059.708 11.729 39.122 15.343 99.685 8.408 140.873a1.001 1.001 0 0 1-.666.781c-.286.097-28.727 9.704-42.601 12.767a.983.983 0 0 1-.215.023zm-4.442-150.146c7.929 49.091 9.058 113.058 5.58 147.861 13.033-3.058 36.525-10.885 40.47-12.209 6.711-40.634 3.194-99.885-8.215-138.585a829.216 829.216 0 0 1-37.835 2.933z" fill="#112c41"/><circle cx="459.955" cy="340.272" fill="#ffe993" r="8.5"/><path d="M462.706 341.34c1.341 15.245-5.262 32.349-9.308 37.412a2.833 2.833 0 0 1-4.425-3.537c3.107-3.887 9.568-20.216 8.003-34.259a2.832 2.832 0 1 1 5.629-.631c.038.337.072.676.102 1.014z" fill="#fff"/><path d="M451.181 380.814a3.806 3.806 0 0 1-2.388-.836 3.84 3.84 0 0 1-.602-5.387c3.026-3.785 9.326-19.756 7.791-33.523a3.84 3.84 0 0 1 3.381-4.235c2.104-.223 4 1.283 4.235 3.382.039.344.074.691.104 1.038 1.383 15.721-5.36 32.915-9.523 38.124a3.83 3.83 0 0 1-2.998 1.438zm8.61-42.005a1.835 1.835 0 0 0-1.821 2.038c1.595 14.311-5.036 31.015-8.216 34.992-.63.79-.501 1.946.287 2.576a1.833 1.833 0 0 0 2.576-.288c3.874-4.847 10.411-21.723 9.093-36.699a40.442 40.442 0 0 0-.099-.99 1.835 1.835 0 0 0-1.82-1.629z" fill="#112c41"/><circle cx="482.363" cy="355.118" fill="#ffe993" r="8.5"/><path d="M485.081 356.268c.889 15.278-8.078 33.419-12.273 38.36a2.832 2.832 0 1 1-4.318-3.666c3.221-3.793 12.024-21.163 10.875-35.246a2.833 2.833 0 0 1 5.645-.465c.028.338.052.678.072 1.017z" fill="#fff"/><path d="M470.645 396.625a3.82 3.82 0 0 1-2.477-.908 3.838 3.838 0 0 1-.441-5.402c2.959-3.486 11.784-20.497 10.641-34.519a3.842 3.842 0 0 1 3.504-4.133c2.122-.14 3.961 1.4 4.134 3.506.029.345.054.693.074 1.041.931 15.996-8.572 34.427-12.509 39.065a3.827 3.827 0 0 1-2.925 1.35zm11.542-42.975a1.836 1.836 0 0 0-1.826 1.984c1.191 14.598-8.02 32.337-11.109 35.976a1.836 1.836 0 0 0 .211 2.583c.77.652 1.93.559 2.583-.212 3.79-4.464 12.935-22.221 12.037-37.655a36.29 36.29 0 0 0-.07-.99 1.836 1.836 0 0 0-1.825-1.685z" fill="#112c41"/><path d="M357.675 357.65c-1.12 11.32-2.12 18.35-2.12 18.35s-294.81 53.59-344-99c-2.38-7.38-4.32-14.51-5.84-21.4-30.03-135.16 96.08-178.94 119.86-185.12 26.96 106.04 2.76 119.53 46.98 134.52 46.358 15.715 131.612 6.413 166.017-.009 8.118-1.515 15.791 4.223 16.629 12.438 1.907 18.709 4.854 50.475 5.354 72.572.59 26-1.26 51.3-2.88 67.65z" fill="#ffa9dc"/><path d="M357.675 357.65c-1.12 11.32-2.12 18.35-2.12 18.35s-294.81 53.59-344-99c-2.38-7.38-4.32-14.51-5.84-21.4 28.86 52.42 76.951 100.565 180.84 112.4 79 9 133.8-5.9 171.12-10.35z" fill="#ff90d8"/><g fill="#112c41"><path d="M242.632 386.11c-13.168 0-26.857-.406-40.702-1.39-46.487-3.305-85.617-12.379-116.303-26.973-38.475-18.298-63.717-45.362-75.025-80.441-16.356-50.735-13.799-95.031 7.6-131.656 29.533-50.547 87.373-72.104 107.167-76.146.539-.107 1.07.238 1.18.779s-.239 1.069-.78 1.18c-19.551 3.992-76.677 25.282-105.84 75.195-21.099 36.114-23.597 79.863-7.423 130.035 25.24 78.294 117.018 100.876 189.566 106.032 74.665 5.306 144.792-6.241 152.591-7.585.775-5.738 5.807-44.825 4.892-85.118-.507-22.313-3.551-54.81-5.32-72.194a13.874 13.874 0 0 0-5.316-9.62 13.891 13.891 0 0 0-10.646-2.815l-3.478.512c-19.815 2.921-61.039 8.991-100.929 8.75-49.78-.312-80.129-10.473-90.203-30.199a1 1 0 0 1 1.781-.91c9.707 19.009 39.46 28.803 88.434 29.109 39.708.214 80.858-5.815 100.625-8.729l3.481-.511a15.886 15.886 0 0 1 12.164 3.217 15.854 15.854 0 0 1 6.076 10.994c1.772 17.414 4.821 49.971 5.33 72.353.991 43.578-4.949 85.743-5.01 86.164a.998.998 0 0 1-.811.842c-.609.111-51.07 9.127-113.101 9.127zM309.555 64c-.093 0-.187-.013-.28-.04-20.359-5.938-48.633-8.239-84.042-6.84-.577.033-1.017-.408-1.039-.96s.408-1.017.959-1.038c35.623-1.407 64.114.92 84.68 6.918a1 1 0 0 1-.279 1.96zm192 5a1.001 1.001 0 0 1-.352-1.936c13.01-4.879 41.139-13.063 83.351-13.063a1 1 0 1 1 0 2c-41.896 0-69.765 8.105-82.649 12.937a1.005 1.005 0 0 1-.351.063z"/></g></svg></g><g transform="translate(305.0 890.0) rotate(0.0 595.0 153.5) scale(0.9995254354025189 0.9992871534638157)"><svg width="1190.565" height="307.219" viewBox="0 0 1190.565 307.219"><path d="M854.405 116.779c4.042 19.223-16.359 69.314-39.697 102.182-23.339 32.868-43.169 37.478-43.169 37.478l-73.872-28.399-217.909.74-34.474 15.986s-28.056-4.902-48.869-26.942c-22.83-24.179-44.082-61.712-52-83.922-2.113-5.887-3.277-10.705-3.282-13.899-.026-14.318 13.169-26.94 92.733-49.615 42.782-12.189 86.648-18.641 129.484-20.659a640.33 640.33 0 0 1 27.429-.704 654.977 654.977 0 0 1 45.032 1.362c59.464 3.819 114.245 15.365 157.906 30.601 43.4 15.148 57.941 22.735 60.688 35.791z" fill="#ffe993"/><path d="M590.779 49.025c-1.027 3.585-8.394 2.003-24.871 4.225-87.143 11.75-157.84 42.328-218.531 82.597 0 0-1.124-.736-2.963-1.944-2.113-5.887-3.277-10.705-3.282-13.899-.026-14.318 13.169-26.94 92.733-49.615C476.647 58.2 520.513 51.748 563.349 49.73a640.33 640.33 0 0 1 27.429-.704z" fill="#ffd169"/><path d="M771.538 257.439c-.122 0-.244-.022-.359-.066l-73.697-28.331-217.503.737-34.275 15.895a1.002 1.002 0 0 1-.593.078c-.284-.05-28.623-5.215-49.423-27.241-29.549-31.3-55.526-83.534-55.555-98.506-.027-15.521 14.858-28.178 93.459-50.578 40.7-11.596 84.341-18.56 129.711-20.696 23.907-1.131 48.325-.907 72.572.659 56.384 3.621 111.079 14.221 158.171 30.654 42.732 14.915 58.422 22.677 61.337 36.529 4.278 20.349-17.914 72.059-39.86 102.967-23.291 32.8-42.934 37.682-43.758 37.873a.97.97 0 0 1-.227.026zm-73.872-30.398c.123 0 .244.022.359.066l73.565 28.281c2.482-.729 20.994-6.999 42.301-37.007 24.132-33.986 43.343-83.263 39.534-101.396-2.718-12.916-18.094-20.412-60.039-35.053-46.923-16.375-101.435-26.938-157.64-30.547-24.173-1.563-48.515-1.785-72.349-.657-45.217 2.13-88.706 9.067-129.258 20.622-76.985 21.939-92.032 34.452-92.007 48.65.028 14.673 25.75 66.144 55.009 97.137 19.188 20.319 44.944 25.974 48.013 26.586l34.182-15.851c.131-.061.273-.092.417-.093l217.909-.739h.003z" fill="#112c41"/><path d="M748.009 180.787c-4.04 25.043-14.427 48.83-30.256 68.869-14.012 17.73-32.286 32.542-54.195 42.701-74.654 34.618-163.238 2.162-197.856-72.492a149.528 149.528 0 0 1-9.857-28.388l-.365-1.572z" fill="#ffe993"/><path d="M690.42 276.594c-1.814.841-4.952 5.603-26.861 15.763-74.654 34.618-163.238 2.162-197.856-72.492-4.308-9.29-8.043-19.793-10.32-29.385 0 0 24.096-.333 29.214 10.704 8.834 19.051 66.731 134.398 205.823 75.411z" fill="#ffd169"/><path d="M600.963 307.262c-17.407 0-34.858-3.068-51.689-9.235-37.621-13.784-67.622-41.393-84.478-77.741a150.99 150.99 0 0 1-10.29-30.162 1 1 0 1 1 1.951-.441 148.917 148.917 0 0 0 10.153 29.762c16.63 35.864 46.232 63.105 83.351 76.705 37.119 13.601 77.313 11.932 113.176-4.699 44.673-20.716 76.033-62.146 83.886-110.825a.994.994 0 0 1 1.146-.828 1 1 0 0 1 .828 1.146c-7.959 49.336-39.742 91.325-85.019 112.321-20.087 9.314-41.516 13.998-63.017 13.998zm-142.979-68.386L426.232 253.6c-43.686-56.461-68.069-100.82-74.475-123.356-5.002-17.61.967-21.899 17.293-8.228 8.043 6.72 18.593 17.8 31.572 33.783 8.759 11.282 18.881 25.647 27.82 39.789.181-.084 19.851 26.454 29.47 43.157.021.045.051.087.072.132z" fill="#112c41"/><path d="M426.232 254.6c-.302 0-.597-.137-.792-.388-46.02-59.479-68.734-102.896-74.646-123.695-2.591-9.122-2.314-14.778.824-16.813 3.39-2.197 9.47.341 18.073 7.545 8.589 7.176 19.257 18.588 31.706 33.92 9.167 11.808 19.327 26.339 27.889 39.885l-.055.034c1.221 1.183 3.912 4.839 11.222 15.207 5.545 7.864 13.225 19.098 18.324 27.951.06.105.089.159.115.215a1 1 0 0 1-.488 1.323l-31.752 14.724a.994.994 0 0 1-.42.093zm-71.811-139.646c-.846 0-1.387.215-1.714.428-2.218 1.438-2.214 6.755.011 14.588 5.84 20.547 28.296 63.458 73.816 122.387l30.042-13.93c-9.493-16.269-27.58-40.69-28.786-42.081a.98.98 0 0 1-.194-.225c-8.529-13.494-18.649-27.968-27.765-39.71-12.354-15.215-22.931-26.535-31.423-33.629-7.675-6.427-11.827-7.828-13.987-7.828zm490.131 13.239c-4.483 21.567-27.215 67.271-70.211 126.946-10.572-3.067-17.549-4.969-25.544-7.687a260.002 260.002 0 0 1-5.562-1.962v-.002c8.657-16.346 26.021-41.348 27.409-43.437l.982-1.018c8.425-14.207 15.014-28.995 23.281-40.423 12.713-16.797 23.789-30.624 31.719-37.674 14.937-13.309 21.175-10.293 17.925 5.257z" fill="#112c41"/><path d="M774.342 256.139a.99.99 0 0 1-.279-.04c-2.125-.616-4.106-1.186-5.978-1.725-7.375-2.121-13.2-3.797-19.609-5.977a247.538 247.538 0 0 1-5.584-1.971 1.001 1.001 0 0 1-.541-1.408c5.138-9.7 14.047-23.857 26.48-42.079.494-.724.831-1.218.98-1.443.034-.05.071-.098.113-.141l.901-.934c3.182-5.373 6.119-10.859 8.96-16.166 4.711-8.801 9.161-17.113 14.312-24.232 10.883-14.38 23.168-30.104 31.865-37.836 8.215-7.319 14.127-10.023 17.57-8.029 2.944 1.703 3.617 6.494 1.998 14.238-4.187 20.143-24.874 64.17-70.378 127.327a1.001 1.001 0 0 1-.812.415zm-29.682-11.196c1.398.504 2.868 1.02 4.46 1.563 6.364 2.164 12.168 3.833 19.518 5.947 1.673.481 3.433.987 5.305 1.529 45.082-62.667 65.688-107.021 69.631-125.992 1.382-6.615 1.012-10.912-1.042-12.1-1.186-.687-5.04-1.296-15.239 7.792-8.567 7.617-20.775 23.247-31.587 37.531-5.059 6.993-9.478 15.248-14.156 23.987-2.869 5.358-5.835 10.9-9.062 16.342-.04.067-.087.129-.141.185l-.92.953c-.17.255-.493.727-.943 1.387-11.964 17.534-20.646 31.277-25.824 40.876z" fill="#112c41"/><path d="M457.911 238.745c-.931.487-1.903.994-2.933 1.523-38.848 20.037-138.668 66.259-215.645 54.803-93.804-13.956-159.968-95.236-187.991-130.451-1.729-2.169-3.315-4.171-4.747-5.966C1.489 102.271-16.382 43.621 21.93 62.439 3.329 30.086 15.989 1.965 42.793 31.651c18.345-27.872 61.201-11.696 55.061 3.467-4.502 11.122-17.227 4.789-25.576 16.7-6.174 8.792 5.305 25.409 18.74 20.528 13.793-5.007.717-30.938 7.441-35.809 8.323-6.04 24.969 3.624 35.113 29.507 11.045 28.177 55.838 61.472 87.117 72.335 21.98 7.628 59.929 23.443 131.066-8.134a350.578 350.578 0 0 0 17.296-8.23c8.041 6.717 18.591 17.801 31.569 33.781 5.958 7.665 25.829 35.504 40.97 57.797 7.149 10.514 13.236 19.797 16.322 25.152z" fill="#ffd6c0"/><path d="M264.81 297.862c-8.741 0-17.316-.565-25.625-1.802-95.874-14.264-163.259-98.94-188.626-130.817l-4.747-5.965C12.175 117.229-7.26 73.136 2.489 60.99c3.171-3.952 8.917-4.191 17.101-.724-10.059-19.046-9.145-35.32-2.129-40.415 5.981-4.345 15.135-.627 25.217 10.195 12.443-17.578 34.768-16.723 46.915-10.345 7.715 4.051 11.256 9.891 9.356 15.344 2.595-1.42 5.754-1.637 9.225-.622 7.688 2.251 18.642 11.644 26.329 31.256 10.832 27.635 54.609 60.675 86.514 71.755.916.317 1.859.649 2.832.992 22.324 7.855 59.687 21.006 127.5-9.096a350.762 350.762 0 0 0 17.248-8.208 1 1 0 0 1 1.094.124c8.582 7.17 19.249 18.581 31.704 33.918 6.138 7.896 26.263 36.138 41.021 57.866 7.857 11.556 13.515 20.274 16.361 25.215a.998.998 0 0 1-.403 1.384c-.934.489-1.907.997-2.94 1.527-35.141 18.125-118.453 56.704-190.624 56.704zM9.762 59.864c-2.313 0-4.337.664-5.712 2.377-7.889 9.829 7.964 51.585 43.325 95.788l4.749 5.968c25.234 31.709 92.263 115.938 187.356 130.085 76.345 11.365 175.814-34.47 215.04-54.702.692-.355 1.357-.7 2-1.036-2.965-5.024-8.387-13.349-15.757-24.188-14.738-21.7-34.825-49.89-40.932-57.746-12.117-14.92-22.52-26.093-30.917-33.203a351.64 351.64 0 0 1-16.754 7.954c-68.538 30.423-106.369 17.108-128.973 9.153-.97-.342-1.911-.673-2.825-.99-32.315-11.222-76.695-44.788-87.72-72.913-7.423-18.938-17.796-27.949-25.029-30.066-3.349-.981-6.311-.634-8.566 1.003-2.325 1.684-1.714 7.209-1.067 13.058.97 8.771 2.178 19.688-6.62 22.882-7.892 2.864-14.569-1.162-18.188-5.886-4.074-5.32-4.763-11.813-1.712-16.157 4.355-6.214 9.848-7.7 14.695-9.012 4.665-1.262 8.693-2.352 10.772-7.488 2.199-5.431-2.827-10.416-8.264-13.271-11.719-6.153-33.438-6.893-45.035 10.729a.997.997 0 0 1-1.577.12c-9.513-10.534-18.266-14.591-23.415-10.852-6.483 4.708-6.736 21.52 4.16 40.472a1 1 0 0 1-1.308 1.396c-3.675-1.805-8.063-3.473-11.728-3.473zM95.561 40.22c-2.469 2.206-5.617 3.058-8.883 3.941-4.74 1.282-9.641 2.608-13.58 8.229-2.546 3.626-1.878 9.169 1.663 13.793 3.187 4.161 9.041 7.718 15.917 5.222 7.319-2.657 6.254-12.286 5.315-20.781-.438-3.957-.84-7.597-.432-10.404z" fill="#112c41"/><path d="M457.911 238.745c-.931.487-1.903.994-2.933 1.523-38.848 20.037-138.668 66.259-215.645 54.803-93.804-13.956-159.968-95.236-187.991-130.451l.198-.664c47.106 44.105 114.382 113.618 207.385 114.252 81.023.552 140.388-35.515 182.664-64.615 7.149 10.514 13.236 19.797 16.322 25.152z" fill="#f5b9ab"/><g fill="#112c41"><path d="M264.795 297.862c-8.739 0-17.3-.564-25.606-1.8-41.161-6.124-81.857-25.97-120.957-58.985-32.128-27.129-55.349-56.335-69.222-73.784-1.137-1.43-2.203-2.771-3.198-4.015C12.171 117.23-7.265 73.136 2.486 60.986c3.171-3.953 8.918-4.193 17.104-.725-10.056-19.044-9.143-35.316-2.129-40.41 5.98-4.347 15.134-.628 25.217 10.19C55.119 12.467 77.445 13.323 89.595 19.7c7.715 4.05 11.257 9.89 9.359 15.342 2.596-1.418 5.755-1.636 9.221-.62 7.685 2.25 18.637 11.644 26.327 31.258 10.834 27.634 54.61 60.674 86.513 71.753.912.316 1.85.646 2.818.987 22.325 7.86 59.69 21.017 127.519-9.091a355.62 355.62 0 0 0 17.246-8.206 1 1 0 0 1 1.094.124c8.59 7.177 19.258 18.589 31.707 33.92 9.004 11.599 47.803 66.447 57.38 83.078a1.001 1.001 0 0 1-.404 1.385c-.933.486-1.91.996-2.934 1.525-35.151 18.125-118.49 56.7-190.646 56.705zM9.761 59.859c-2.314 0-4.339.664-5.715 2.379-7.89 9.831 7.964 51.589 43.328 95.79.997 1.246 2.064 2.589 3.202 4.02 28.043 35.272 93.716 117.874 188.907 132.036 76.313 11.355 175.805-34.474 215.04-54.703.686-.355 1.352-.701 1.997-1.038-10.36-17.568-47.875-70.578-56.688-81.931-12.112-14.916-22.515-26.088-30.919-33.205a355.798 355.798 0 0 1-16.751 7.952c-68.554 30.43-106.387 17.106-128.993 9.148-.964-.34-1.901-.669-2.81-.985-32.313-11.222-76.692-44.787-87.719-72.911-7.426-18.941-17.797-27.952-25.027-30.069-3.346-.979-6.309-.633-8.566 1.004-2.324 1.686-1.713 7.212-1.066 13.062.97 8.771 2.177 19.688-6.619 22.881-7.89 2.864-14.567-1.163-18.187-5.887-4.075-5.319-4.767-11.813-1.72-16.158 4.357-6.215 9.854-7.702 14.703-9.015 4.666-1.263 8.695-2.353 10.774-7.487 2.198-5.431-2.829-10.415-8.267-13.27-11.721-6.153-33.442-6.893-45.036 10.725a.997.997 0 0 1-1.577.12C32.538 21.786 23.784 17.73 18.637 21.47c-6.481 4.707-6.733 21.517 4.161 40.467a1.001 1.001 0 0 1-1.308 1.396c-3.675-1.805-8.064-3.473-11.729-3.473zM95.562 40.22c-2.469 2.203-5.616 3.055-8.881 3.938-4.742 1.283-9.646 2.61-13.587 8.232-2.543 3.627-1.872 9.17 1.67 13.794 3.187 4.159 9.041 7.718 15.916 5.222 7.318-2.655 6.253-12.284 5.314-20.779-.438-3.958-.84-7.599-.432-10.407zm540.249 10.167c.792 1.804 1.207 3.695 1.194 5.641-.083 12.252-16.94 22.064-37.647 21.933-20.711-.14-37.444-10.172-37.365-22.411.01-2.022.484-3.972 1.357-5.821 24.615-1.163 48.905-.864 72.461.658z"/><path d="M599.766 78.961h-.414c-21.233-.145-38.441-10.648-38.359-23.417.011-2.123.5-4.224 1.453-6.241a.999.999 0 0 1 .857-.572c23.909-1.129 48.325-.907 72.572.659a1 1 0 0 1 .851.596c.862 1.961 1.292 3.996 1.278 6.05-.086 12.693-17.203 22.927-38.239 22.927zm-35.754-28.263a12.615 12.615 0 0 0-1.019 4.856c-.075 11.667 16.242 21.269 36.372 21.405 20.138.098 36.56-9.265 36.64-20.939a12.637 12.637 0 0 0-.879-4.676c-23.761-1.513-47.679-1.729-71.114-.646zM123.155 258.057c-.67 0-1.286-.131-1.841-.411-3.851-1.946-4.662-8.728-2.409-20.153a1 1 0 0 1 1.962.387c-1.971 9.998-1.479 16.552 1.35 17.981 2.562 1.299 10.568-3.248 24.703-20.305 12.372-14.93 25.104-34.426 34.059-52.15 9.163-18.136 16.013-35.662 19.288-49.352 3.013-12.594 2.717-21.172-.792-22.944-2.965-1.502-8.156 1.528-14.614 8.526a1 1 0 0 1-1.47-1.357c7.324-7.936 13.038-10.944 16.986-8.954 5.798 2.93 4.198 15.318 1.835 25.195-3.311 13.836-10.217 31.518-19.448 49.788-9.019 17.851-21.842 37.485-34.304 52.523-6.844 8.259-18.649 21.225-25.304 21.226zm-45.737-37.303c-1.352 0-2.478-.357-3.34-1.121-3.928-3.479-.243-14.534 4.107-22.942a1 1 0 1 1 1.777.918c-5.66 10.941-6.572 18.742-4.557 20.526.516.457 1.229.679 2.118.679 9.002.002 36.228-22.656 63.257-53.181 13.6-15.358 24.895-30.707 31.805-43.218 6.449-11.677 8.566-20.184 5.662-22.755-2.131-1.89-7.568-.447-14.917 3.958a1 1 0 1 1-1.028-1.715c8.506-5.1 14.316-6.359 17.271-3.741 4.825 4.272-.185 16.073-5.237 25.221-6.979 12.635-18.364 28.11-32.058 43.576-20.362 22.995-52.313 53.793-64.857 53.795zM42.332 81.783a.997.997 0 0 1-.764-.354c-.106-.126-10.734-12.631-20.725-18.174a1 1 0 1 1 .969-1.748c10.315 5.722 20.84 18.106 21.283 18.631a1 1 0 0 1-.764 1.645zm15.732-23.516a1 1 0 0 1-.911-.587c-.073-.161-7.419-16.24-17.217-27.99a1 1 0 0 1 1.536-1.281C51.447 40.372 58.9 56.691 58.974 56.854a1 1 0 0 1-.911 1.413z"/><path d="M34.999 105.659a1 1 0 0 1-.988-1.159c3.013-18.676 15.968-40.19 26.627-50.951a.998.998 0 0 1 1.414-.006.999.999 0 0 1 .007 1.414c-10.441 10.54-23.127 31.597-26.074 49.861a1 1 0 0 1-.986.841z"/></g><path d="M743.323 245.865c.958.431 1.958.881 3.018 1.348 39.959 17.718 142.325 57.988 218.495 42.024 92.821-19.449 154.089-104.48 179.993-141.282 1.598-2.267 3.064-4.359 4.388-6.235 41.711-58.938 56.101-118.538 18.962-97.499 16.666-33.391 2.375-60.718-22.638-29.507-19.952-26.745-61.783-8.076-54.762 6.699 5.148 10.838 17.479 3.767 26.514 15.167 6.68 8.413-3.801 25.677-17.5 21.595-14.063-4.187-2.536-30.842-9.535-35.309-8.664-5.54-24.712 5.087-33.317 31.521-9.369 28.778-52.125 64.65-82.711 77.333-21.493 8.908-58.446 26.927-131.317-.411-5.712-2.128-11.625-4.528-17.75-7.199-7.632 7.179-17.512 18.863-29.527 35.58-5.497 8.002-23.696 36.962-37.499 60.107-6.518 10.916-12.049 20.541-14.814 26.069z" fill="#ffd6c0"/><path d="M926.779 293.889c-69.104 0-146.812-30.673-180.844-45.763-.945-.416-1.844-.82-2.709-1.209l-.313-.141c-.249-.111-.441-.319-.532-.576s-.074-.54.047-.783c2.55-5.097 7.685-14.134 14.851-26.134 13.45-22.554 31.88-51.931 37.533-60.161 11.544-16.061 21.521-28.08 29.667-35.741a1.004 1.004 0 0 1 1.085-.188c6.109 2.665 12.064 5.08 17.699 7.179 69.467 26.06 105.993 10.736 127.816 1.581.951-.398 1.874-.786 2.77-1.157 31.197-12.937 72.955-48.495 82.144-76.719 6.52-20.031 16.902-30.052 24.445-32.751 3.402-1.217 6.571-1.186 9.245.079-2.217-5.332.975-11.371 8.438-15.868 11.751-7.079 33.987-9.246 47.442 7.567 9.429-11.396 18.347-15.646 24.574-11.66 7.303 4.673 9.173 20.865.251 40.47 7.965-3.943 13.714-4.042 17.114-.284 10.447 11.554-6.361 56.713-37.467 100.668l-4.387 6.233c-23.448 33.313-85.736 121.807-180.605 141.685-12.193 2.556-25.078 3.674-38.262 3.674zm-182.09-48.507c.662.297 1.345.603 2.055.915 40.351 17.892 142.353 57.791 217.887 41.961 94.097-19.717 156.056-107.741 179.38-140.879l4.389-6.236c32.701-46.208 46.07-88.824 37.617-98.172-3.809-4.214-11.534-1.172-17.346 2.119a1 1 0 0 1-1.387-1.317c9.762-19.56 8.521-36.327 1.773-40.646-5.36-3.433-13.859 1.136-22.736 12.21a1.027 1.027 0 0 1-.797.375 1.004 1.004 0 0 1-.785-.402c-12.612-16.905-34.25-14.891-45.587-8.062-5.26 3.17-9.984 8.441-7.469 13.734 2.377 5.005 6.463 5.856 11.194 6.842 4.916 1.024 10.487 2.185 15.2 8.132 3.3 4.156 2.995 10.679-.76 16.23-3.334 4.929-9.765 9.341-17.81 6.943-8.97-2.67-8.407-13.639-7.955-22.451.302-5.877.587-11.429-1.833-12.973-2.348-1.501-5.325-1.674-8.61-.498-7.096 2.538-16.922 12.144-23.218 31.486-9.352 28.725-51.68 64.844-83.279 77.947-.894.37-1.813.756-2.762 1.154-22.097 9.27-59.081 24.785-129.29-1.552a353.215 353.215 0 0 1-17.191-6.955c-7.964 7.592-17.692 19.357-28.923 34.982-5.625 8.188-24.02 37.512-37.452 60.035-6.722 11.258-11.645 19.886-14.308 25.074zm348.68-219.01c.573 2.778.385 6.436.181 10.411-.438 8.535-.935 18.211 6.528 20.433 7.011 2.088 12.645-1.805 15.582-6.148 3.263-4.824 3.604-10.396.85-13.866-4.264-5.38-9.234-6.416-14.041-7.417-3.313-.69-6.505-1.355-9.1-3.412z" fill="#112c41"/><path d="M743.323 245.865c.958.431 1.958.881 3.018 1.348 39.959 17.718 142.325 57.988 218.495 42.024 92.821-19.449 154.089-104.48 179.993-141.282l-.237-.651c-44.43 46.799-107.501 120.149-200.306 126.252-80.85 5.317-142.234-27.196-186.149-53.759-6.518 10.916-12.049 20.541-14.814 26.069z" fill="#f5b9ab"/><path d="M926.796 293.888c-69.094 0-146.825-30.673-180.864-45.761-1.054-.469-2.061-.92-3.021-1.352a1 1 0 0 1-.484-1.359c8.58-17.159 44.087-74.198 52.382-86.29 11.54-16.057 21.518-28.076 29.67-35.744a1.006 1.006 0 0 1 1.085-.188 357.074 357.074 0 0 0 17.697 7.178c69.482 26.063 106.009 10.734 127.834 1.575.946-.397 1.864-.782 2.755-1.152l.383.924-.383-.924c31.196-12.937 72.953-48.494 82.143-76.717 6.523-20.033 16.904-30.055 24.443-32.753 3.4-1.217 6.568-1.184 9.241.077-2.216-5.331.977-11.369 8.44-15.866 11.753-7.08 33.991-9.249 47.444 7.564 9.431-11.394 18.351-15.642 24.575-11.656 7.301 4.673 9.17 20.863.251 40.465 7.968-3.943 13.719-4.041 17.117-.282 10.449 11.556-6.36 56.716-37.47 100.671-.921 1.3-1.906 2.702-2.957 4.195-12.823 18.235-34.285 48.756-64.762 77.728-37.09 35.259-76.548 57.463-117.278 65.997-12.19 2.555-25.06 3.671-38.241 3.671zm-182.109-48.507c.665.298 1.35.604 2.056.918 40.354 17.888 142.368 57.781 217.884 41.961 94.193-19.736 154.894-106.058 180.814-142.918 1.052-1.495 2.039-2.898 2.96-4.201 32.703-46.205 46.073-88.823 37.619-98.174-3.81-4.212-11.537-1.174-17.349 2.118a1 1 0 0 1-1.387-1.317c9.76-19.557 8.52-36.323 1.773-40.641-5.358-3.438-13.859 1.132-22.737 12.206a.977.977 0 0 1-.798.374 1.001 1.001 0 0 1-.784-.402c-12.61-16.903-34.25-14.888-45.589-8.058-5.26 3.17-9.985 8.441-7.471 13.733 2.377 5.003 6.464 5.854 11.196 6.841 4.917 1.024 10.492 2.186 15.207 8.134 3.297 4.158 2.989 10.682-.767 16.231-3.334 4.927-9.768 9.343-17.809 6.945-8.97-2.669-8.407-13.637-7.954-22.45.302-5.878.587-11.431-1.833-12.977-2.349-1.501-5.326-1.674-8.61-.498-7.093 2.538-16.917 12.143-23.216 31.488-9.353 28.724-51.68 64.842-83.278 77.945-.889.368-1.804.753-2.748 1.148-22.099 9.274-59.084 24.798-129.309-1.546a358.323 358.323 0 0 1-17.188-6.953c-7.971 7.598-17.699 19.363-28.926 34.984-8.119 11.836-42.452 66.963-51.758 85.105zm348.681-219.009c.573 2.779.386 6.438.182 10.414-.438 8.536-.935 18.211 6.527 20.432 7.01 2.081 12.645-1.809 15.582-6.15 3.264-4.823 3.608-10.396.856-13.868-4.265-5.38-9.238-6.416-14.048-7.418-3.312-.69-6.504-1.355-9.098-3.409z" fill="#112c41"/><path d="M1148.891 64.733a1.001 1.001 0 0 1-.8-1.599c.412-.549 10.189-13.531 20.15-19.852a1 1 0 0 1 1.071 1.69c-9.647 6.12-19.521 19.229-19.62 19.361a.998.998 0 0 1-.801.4zm-17.088-22.55a1 1 0 0 1-.934-1.358c.064-.168 6.545-16.896 15.799-29.426a1 1 0 1 1 1.608 1.187c-9.09 12.308-15.477 28.79-15.541 28.955a1.002 1.002 0 0 1-.934.642z" fill="#112c41"/><path d="M1157.616 88.136a1 1 0 0 1-.975-.783c-4.015-18.059-17.918-38.333-28.961-48.242a1 1 0 1 1 1.336-1.488c11.274 10.116 25.472 30.831 29.578 49.297a1 1 0 0 1-.977 1.216z" fill="#112c41"/></svg></g><g transform="translate(757.0 684.0) rotate(0.0 140.5 115.0) scale(0.9962560626258616 0.9916443187403531)"><svg width="282.056" height="231.938" viewBox="0 0 282.056 231.938"><path d="M47.447 98.052c-6.573 21.063-22.383 95.493-25.025 108.001a1.945 1.945 0 0 0 1.395 2.285c16.016 4.379 137.376 35.591 232.693 3.422a1.97 1.97 0 0 0 1.317-2.121L243.38 99.356a1.96 1.96 0 0 0-1.933-1.705l-192.121-.966a1.952 1.952 0 0 0-1.879 1.366z" fill="#b2b0f7"/><path d="m49.323 96.682 2.633.016c-4.349 27.011-10.958 97.564-12.612 115.5-7.565-1.741-12.936-3.15-15.53-3.864a1.944 1.944 0 0 1-1.396-2.281c2.645-12.503 18.453-86.933 25.027-108.002a1.964 1.964 0 0 1 1.879-1.368z" fill="#9797f7"/><path d="M157.859 227.071c-66.538 0-125.079-15.245-134.306-17.768a2.957 2.957 0 0 1-2.11-3.457c3.037-14.377 18.517-87.158 25.049-108.092a2.938 2.938 0 0 1 2.822-2.068h.018l192.12.965a2.97 2.97 0 0 1 2.92 2.576l14.448 110.282a2.973 2.973 0 0 1-1.989 3.198c-31.648 10.682-66.278 14.363-98.971 14.363zM48.402 98.35c-6.505 20.849-21.968 93.548-25.001 107.91a.94.94 0 0 0 .681 1.113c9.19 2.513 67.536 17.703 133.769 17.706 32.507 0 66.901-3.656 98.341-14.267a.969.969 0 0 0 .645-1.044L242.389 99.486a.962.962 0 0 0-.946-.836l-192.121-.965h-.006a.95.95 0 0 0-.914.664z" fill="#112c41"/><circle cx="252.479" cy="125.263" fill="#ffd6c0" r="28.57"/><path d="M274.794 141.441a26.942 26.942 0 0 1-2.573 3.063c.506.449.959.944 1.361 1.467a28.09 28.09 0 0 0 2.645-3.099 15.005 15.005 0 0 0-1.433-1.431z" fill="#ffd6c0"/><path d="M243.474 152.377c14.488 4.814 30.098-2.619 35.603-16.684-7.325 8.571-19.369 12.319-30.73 8.554-14.972-4.977-23.082-21.155-18.105-36.128.164-.484.338-.961.524-1.43a28.4 28.4 0 0 0-5.395 9.569c-4.977 14.973 3.131 31.141 18.104 36.119z" fill="#f5b9ab"/><path d="M252.456 154.835c-3.084 0-6.217-.486-9.3-1.511a29.655 29.655 0 0 1-17.637-15.916 1 1 0 1 1 1.823-.822 27.65 27.65 0 0 0 16.445 14.84c14.427 4.796 30.063-3.044 34.856-17.471s-3.045-30.063-17.471-34.856c-13.613-4.524-28.604 2.292-34.124 15.515a1 1 0 1 1-1.846-.77c5.921-14.185 21.997-21.495 36.601-16.644 15.473 5.142 23.879 21.912 18.739 37.386-4.117 12.389-15.692 20.248-28.085 20.249z" fill="#112c41"/><path d="M237.09 128.895a1 1 0 0 1-1-.989c-.112-10.105 7.809-18.416 17.657-18.525 5.412-.059 10.468 2.347 13.926 6.603a1 1 0 0 1-1.553 1.261c-3.07-3.78-7.588-5.961-12.351-5.864-8.745.097-15.779 7.501-15.679 16.504a1 1 0 0 1-.989 1.011h-.011z" fill="#112c41"/><circle cx="144.876" cy="128.204" fill="#ffd6c0" r="102.5"/><path d="M128.111 27.385c.341-.058.68-.098 1.02-.153l8.686 11.18c-52.648 9.149-87.855 56.551-78.991 108.444 8.88 51.987 58.63 88.797 111.436 79.777a98.287 98.287 0 0 0 15.208-3.856 102.838 102.838 0 0 1-22.841 6.681c-55.802 9.532-108.763-27.976-118.295-83.778S72.31 36.917 128.112 27.385z" fill="#f5b9ab"/><path d="M145.317 231.932c-49.482 0-93.363-35.7-101.969-86.084-4.655-27.251 1.581-54.684 17.559-77.244 15.978-22.562 39.785-37.55 67.036-42.204 56.26-9.608 109.84 28.341 119.45 84.596 4.655 27.251-1.581 54.684-17.559 77.244-15.978 22.562-39.786 37.55-67.037 42.204a103.762 103.762 0 0 1-17.48 1.488zm.105-205.021c-5.658 0-11.381.476-17.143 1.459-26.725 4.565-50.072 19.264-65.741 41.389s-21.784 49.028-17.219 75.753c8.439 49.406 51.477 84.415 99.999 84.42 5.658 0 11.381-.476 17.142-1.459 26.725-4.565 50.072-19.264 65.741-41.389s21.785-49.028 17.22-75.753c-8.439-49.406-51.477-84.42-99.999-84.42z" fill="#112c41"/><ellipse cx="122.834" cy="80.284" fill="#112c41" rx="14.13" ry="9.336" transform="matrix(.95058078 -.31047735 .31047735 .95058078 -18.856 42.104)"/><ellipse cx="211.435" cy="139.264" fill="#ffa6e0" rx="12.121" ry="8.009" transform="matrix(.9626256 -.27083567 .27083567 .9626256 -29.815 62.467)"/><ellipse cx="118.292" cy="134.875" fill="#ffa6e0" rx="8.009" ry="12.121" transform="matrix(.28565492 -.95833255 .95833255 .28565492 -44.753 209.711)"/><ellipse cx="209.573" cy="83.062" fill="#112c41" rx="8.6" ry="13.016" transform="matrix(.42128909 -.9069264 .9069264 .42128909 45.952 238.137)"/><path d="M205.757 75.527c2.133 0 4.414.536 6.596 1.55 2.802 1.301 5.084 3.218 6.426 5.397.684 1.111 1.696 3.268.785 5.23-.842 1.812-3.15 2.894-6.175 2.894-2.133 0-4.414-.536-6.596-1.55-2.802-1.301-5.084-3.218-6.426-5.397-.684-1.111-1.696-3.268-.785-5.23.842-1.812 3.15-2.894 6.176-2.894m0-2c-3.693 0-6.763 1.411-7.989 4.051-2.001 4.308 1.662 10.255 8.182 13.283 2.524 1.173 5.106 1.736 7.439 1.736 3.693 0 6.763-1.412 7.989-4.052 2.001-4.307-1.662-10.255-8.182-13.283-2.524-1.173-5.106-1.736-7.439-1.736zm-57.177 52.731c1.304 12.427 8.906 22.002 18.325 22.231s17.478-8.964 19.385-21.313z" fill="#112c41"/><path d="M167.25 149.494c-.123 0-.245 0-.368-.004-9.798-.239-17.914-9.965-19.295-23.127a.995.995 0 0 1 .26-.782c.195-.212.464-.319.759-.322l37.71.918a1.003 1.003 0 0 1 .964 1.152c-1.995 12.915-10.385 22.165-20.03 22.165zm-17.537-22.207c1.597 11.57 8.712 19.996 17.218 20.203.106.003.214.004.32.004 8.374 0 15.729-8.01 17.86-19.346z" fill="#112c41"/><path d="M174.38 146.08c-2.9-4.311-8.875-6.711-15.213-5.628a17.706 17.706 0 0 0-4.528 1.409c3.244 4.029 7.525 6.514 12.268 6.629 2.728.066 5.341-.657 7.722-2.024a12.04 12.04 0 0 0-.248-.386z" fill="#ffa6e0"/><path d="M167.257 149.494c-.125 0-.249 0-.375-.004-4.857-.118-9.481-2.604-13.022-7.002a1 1 0 0 1 .355-1.534 18.737 18.737 0 0 1 4.783-1.488c6.511-1.109 13.027 1.322 16.211 6.055l.002.003c.093.14.183.278.27.421a1 1 0 0 1-.355 1.389c-2.5 1.435-5.146 2.16-7.87 2.16zm-10.963-7.242c3.026 3.296 6.761 5.145 10.638 5.238 2.137.063 4.234-.411 6.238-1.382-2.876-3.741-8.339-5.607-13.833-4.671a16.998 16.998 0 0 0-3.042.814z" fill="#112c41"/><circle cx="31.505" cy="124.031" fill="#ffd6c0" r="30.5"/><circle cx="31.505" cy="124.031" fill="#ffd6c0" r="30.5"/><path d="M57.638 139.958c-1.787 1.57-4.188 3.002-6.389 4.145-14.964 7.746-33.545 1.328-41.286-13.627-5.082-9.812-3.922-20.444 1.432-29.229-10.387 9.009-14.059 23.593-7.456 36.356 7.732 14.96 26.141 20.817 41.105 13.071 5.143-2.659 9.788-6.093 12.594-10.716z" fill="#f5b9ab"/><path d="M31.489 155.535c-15.061 0-28.415-10.864-31.035-26.2-2.924-17.12 8.625-33.429 25.747-36.354 16.16-2.76 31.913 7.523 35.865 23.413a1 1 0 1 1-1.94.483c-3.702-14.879-18.458-24.512-33.588-21.925-16.034 2.74-26.851 18.012-24.112 34.046s18.017 26.844 34.046 24.112c7.941-1.357 15.73-6.605 20.326-13.697a1 1 0 1 1 1.678 1.088c-4.891 7.545-13.193 13.132-21.668 14.58a31.501 31.501 0 0 1-5.32.453z" fill="#112c41"/><path d="M49.287 126.77a1 1 0 0 1-.995-.908c-.884-9.608-9.2-16.742-18.531-15.869-5.102.469-9.667 3.243-12.524 7.611a1 1 0 0 1-1.674-1.096c3.194-4.881 8.302-7.981 14.015-8.508 10.438-.96 19.721 6.972 20.706 17.678a1 1 0 0 1-.997 1.092z" fill="#112c41"/><path d="M85.346 19.616a104.906 104.906 0 0 1 19.705-10.59 108.643 108.643 0 0 1 20.513-6.067c42.159-8.089 82.905 9.491 104.119 41.309 5.75 8.625 10.085 18.292 12.585 28.787.503 2.112-1.401 2.953-2.874 2.103-14.836-8.558-43.734-16.492-64.668-18.916-13.967-1.617-28.815-.985-44.009.876a219.534 219.534 0 0 0-18.74 3.118c-.428-9.774 1.184-19.1 4.545-27.204-7.153 7.489-13.103 18.875-16.833 30.237-20.231 5.667-39.213 14.267-53.987 24.487-1.222.845-2.967.376-2.669-1.64 3.932-26.625 19.344-50.772 42.314-66.501z" fill="#b2b0f7"/><path d="M45.253 88.067c5.63-3.931 17.303-10.368 23.841-13.71 3.579-23.753 19.786-53.872 49.952-66.156a97.722 97.722 0 0 1 18.356-5.426 97.106 97.106 0 0 1 13.777-1.646 107.897 107.897 0 0 0-25.614 1.829 108.832 108.832 0 0 0-20.515 6.064C71.136 22.84 47.485 52.783 42.956 86.653c-.165 1.264 1.256 2.142 2.297 1.413z" fill="#9797f7"/><g fill="#112c41"><path d="M44.481 89.16c-.479 0-.942-.123-1.343-.372-.879-.547-1.278-1.573-1.095-2.817 3.959-26.806 19.536-51.291 42.738-67.18a106.053 106.053 0 0 1 19.894-10.69 109.944 109.944 0 0 1 20.701-6.123c20.598-3.954 41.511-1.968 60.479 5.744 18.545 7.538 33.988 19.984 44.66 35.991 5.98 8.971 10.262 18.766 12.725 29.11.305 1.278-.051 2.442-.951 3.114-.939.701-2.271.735-3.395.087-15.405-8.885-44.782-16.531-64.284-18.79-12.668-1.467-26.986-1.179-43.772.876a219.695 219.695 0 0 0-18.654 3.104.997.997 0 0 1-1.206-.934c-.34-7.786.608-15.442 2.757-22.444-5.198 6.758-9.848 15.851-13.096 25.745a.997.997 0 0 1-.681.651c-20.04 5.613-39.106 14.26-53.688 24.346a3.164 3.164 0 0 1-1.789.581zm40.865-69.544.565.825c-22.744 15.574-38.012 39.565-41.89 65.822-.029.197-.071.675.172.825.183.113.574.099.938-.154 14.635-10.123 33.713-18.808 53.774-24.482 4.056-12.148 10.197-23.1 16.892-30.11a.999.999 0 0 1 1.647 1.074c-3.199 7.717-4.752 16.544-4.511 25.601a221.788 221.788 0 0 1 17.661-2.889c16.946-2.077 31.418-2.362 44.246-.878 19.704 2.282 49.424 10.029 65.053 19.044.417.24.91.257 1.2.042.333-.248.27-.763.202-1.048-2.408-10.113-6.595-19.69-12.444-28.464C207.069 12.15 166.6-3.896 125.753 3.942a107.972 107.972 0 0 0-20.324 6.01 104.117 104.117 0 0 0-19.518 10.489zM264.538 168.26c-1.827 0-3.656-.344-5.407-1.033a14.773 14.773 0 0 1-9.34-13.092 1 1 0 0 1 .956-1.043c.52-.052 1.018.403 1.042.955a12.77 12.77 0 0 0 8.075 11.318c3.17 1.248 6.636 1.187 9.76-.173s5.531-3.854 6.778-7.023c2.575-6.544-.653-13.964-7.197-16.538a12.702 12.702 0 0 0-9.383.016.996.996 0 0 1-1.299-.559 1 1 0 0 1 .56-1.299 14.686 14.686 0 0 1 10.854-.02c7.57 2.979 11.305 11.562 8.326 19.132a14.657 14.657 0 0 1-7.842 8.125 14.729 14.729 0 0 1-5.883 1.233zm-245.486 1.638c-1.794 0-3.617-.33-5.385-1.025a14.654 14.654 0 0 1-8.125-7.842c-1.572-3.613-1.644-7.623-.201-11.29s4.228-6.553 7.842-8.125a14.646 14.646 0 0 1 11.29-.2 1 1 0 1 1-.733 1.861 12.675 12.675 0 0 0-9.76.173c-3.124 1.359-5.531 3.854-6.778 7.023s-1.186 6.636.173 9.76 3.854 5.531 7.024 6.778c6.542 2.575 13.962-.653 16.538-7.197a12.64 12.64 0 0 0 .878-5.207 1 1 0 0 1 .957-1.042 1.015 1.015 0 0 1 1.042.956 14.64 14.64 0 0 1-1.015 6.025c-2.283 5.802-7.859 9.351-13.747 9.352zm185.546-55.844c-3.294 0-7.606-.693-12.007-3.361a1 1 0 0 1 1.038-1.711c8.16 4.947 16.195 2.391 16.275 2.363a1 1 0 0 1 .631 1.898c-.185.062-2.511.812-5.936.812zm-76.008-1.532c-3.932 0-6.729-.939-6.935-1.011a1 1 0 0 1 .652-1.891c.083.027 8.443 2.809 16.368-1.682a1 1 0 1 1 .986 1.74c-3.918 2.22-7.871 2.843-11.071 2.843z"/></g></svg></g><g transform="translate(312.0 249.0) rotate(0.0 585.5 292.5) scale(0.9998924112349995 1.0)"><svg width="1171.126" height="585" viewBox="0 0 1171.126 585"><path d="M1149.324 583.729c-1.833-749.236-1125.689-749.236-1127.522 0L1 583.661c1.901-776.882 1167.225-776.881 1169.126 0l-20.802.068z" fill="#ff90d8"/><path d="M1128.522 583.797c-1.766-721.59-1084.153-721.59-1085.918 0l-20.802-.068c1.833-749.236 1125.689-749.236 1127.522 0l-20.802.068z" fill="#ffd169"/><path d="M1107.72 583.864c-1.698-693.945-1042.617-693.945-1044.315 0l-20.802-.068c1.766-721.59 1084.153-721.59 1085.918 0l-20.802.068z" fill="#7bdaac"/><path d="M1086.918 583.932c-1.63-666.299-1001.081-666.299-1002.711 0l-20.802-.068c1.698-693.945 1042.617-693.945 1044.315 0l-20.802.068z" fill="#6ecfea"/><path d="M1066.117 584c-1.563-638.654-959.545-638.654-961.107 0l-20.802-.068c1.63-666.299 1001.081-666.299 1002.711 0l-20.802.068z" fill="#9797f7"/><path d="M1066.116 585a.998.998 0 0 1-1-.998c-.804-328.413-249.15-477.992-479.554-477.992S106.813 255.59 106.009 584.002c0 .266-.107.52-.295.707-.188.188-.436.34-.708.291L.997 584.661A1 1 0 0 1 0 583.659c.441-180.318 63.911-331.687 183.547-437.742 53.607-47.521 116.648-84.344 187.371-109.443C439.113 12.271 511.331 0 585.563 0s146.45 12.271 214.645 36.474c70.723 25.1 133.764 61.922 187.371 109.443 119.636 106.055 183.105 257.424 183.547 437.742a1 1 0 0 1-.997 1.002L1066.12 585zM2.003 582.664l102.01.333c.595-147.845 52.779-271.965 150.945-358.987 44.086-39.082 95.93-69.364 154.092-90.005 56.08-19.903 115.468-29.995 176.513-29.995s120.433 10.092 176.513 29.995c58.162 20.641 110.005 50.923 154.092 90.004 98.167 87.023 150.35 211.144 150.946 358.988l102.009-.333C1167.631 183.735 865.699 2 585.563 2S3.494 183.735 2.003 582.664z" fill="#112c41"/></svg></g><g transform="translate(1250.0 716.0) rotate(0.0 169.5 60.5) scale(0.987767993985979 0.9862576007042367)"><svg width="343.198" height="122.686" viewBox="0 0 343.198 122.686"><path d="M280.633 54.638c-11.196 0-21.671 1.755-30.715 4.789-1.832-21.034-20.456-37.568-43.177-37.568-13.892 0-26.247 6.187-34.178 15.797C165.457 16.359 145.372 1 121.686 1 92.063 1 68.048 25.015 68.048 54.638c0 2.278.158 4.518.434 6.722-5.662-1.447-11.838-2.252-18.313-2.252-27.155 0-49.168 14.009-49.168 31.289 0 16.643 20.422 30.245 46.188 31.226v.062h203.645l49.784-.136c10.172-.028 20.212-3.014 28.401-9.047 8.254-6.082 13.178-13.762 13.178-22.106 0-19.742-27.564-35.759-61.565-35.759z" fill="#fff"/><path d="M250.837 122.685H47.188a.992.992 0 0 1-.386-.077C20.53 121.492 0 107.386 0 90.396c0-17.803 22.505-32.288 50.168-32.288 5.89 0 11.655.652 17.159 1.939a54.16 54.16 0 0 1-.28-5.41C67.048 24.511 91.558 0 121.685 0a54.562 54.562 0 0 1 51.248 35.692c8.456-9.448 20.677-14.833 33.809-14.833 22.447 0 41.541 16.254 44.044 37.232 9.149-2.916 19.439-4.454 29.848-4.454 34.498 0 62.564 16.49 62.564 36.759 0 8.44-4.698 16.363-13.585 22.911-8.167 6.018-18.192 9.213-28.992 9.242l-49.783.136zm-203.3-2h203.297l49.781-.136c10.224-.027 20.101-3.171 27.811-8.852 8.355-6.156 12.771-13.522 12.771-21.302 0-19.166-27.169-34.759-60.564-34.759-10.647 0-21.158 1.639-30.397 4.738a1.002 1.002 0 0 1-1.314-.861c-1.791-20.555-20.319-36.655-42.181-36.655-13.136 0-25.313 5.625-33.407 15.434a1 1 0 0 1-1.721-.32A52.566 52.566 0 0 0 121.685 2C92.661 2 69.047 25.613 69.047 54.638c0 2.118.144 4.338.426 6.598a1 1 0 0 1-1.24 1.093c-5.762-1.473-11.84-2.22-18.066-2.22-26.56 0-48.168 13.587-48.168 30.288 0 15.984 19.866 29.263 45.227 30.228a.978.978 0 0 1 .311.062z" fill="#112c41"/><path d="M86.143 75.824c.477 2.485-1.819 4.57-4.238 3.828-31.29-9.592-52.677-4.751-54.085 10.745-1.774 19.517 61.728 31.289 61.728 31.289h-42.36v-.06C21.427 120.643 1 107.039 1 90.397c0-17.283 22.007-31.289 49.168-31.289 6.481 0 12.65.805 18.311 2.25a55.566 55.566 0 0 1-.432-6.72C68.048 25.018 92.065 1 121.686 1c2.026 0 4.023.119 5.975.343-35.234 6.72-47.81 41.72-41.518 74.481z" fill="#dedffe"/><path d="M250.837 122.685H47.188a.987.987 0 0 1-.378-.074C20.533 121.495 0 107.387 0 90.396c0-17.803 22.505-32.288 50.168-32.288 5.887 0 11.652.651 17.16 1.938a54.283 54.283 0 0 1-.281-5.409C67.048 24.511 91.558 0 121.685 0c2.017 0 4.066.117 6.089.35 20.487 2.262 38.033 16.055 45.162 35.339 8.45-9.446 20.672-14.829 33.81-14.829 22.448 0 41.542 16.252 44.046 37.227 9.165-2.912 19.452-4.448 29.841-4.448 34.498 0 62.564 16.49 62.564 36.759 0 8.435-4.695 16.358-13.578 22.916-8.165 6.013-18.194 9.207-29.004 9.239l-49.779.134zm-203.308-2h203.305l49.776-.134c10.382-.031 20.003-3.091 27.823-8.85 8.35-6.164 12.764-13.532 12.764-21.306 0-19.166-27.169-34.759-60.564-34.759-10.625 0-21.135 1.636-30.391 4.731a1.002 1.002 0 0 1-1.314-.861c-1.792-20.551-20.32-36.648-42.183-36.648-13.143 0-25.32 5.624-33.408 15.43a.999.999 0 0 1-1.72-.32c-6.473-19.405-23.771-33.392-44.068-35.632a51.628 51.628 0 0 0-5.865-.337c-29.024 0-52.638 23.613-52.638 52.638 0 2.094.139 4.252.425 6.599.04.328-.084.654-.333.872s-.587.302-.907.218c-5.766-1.472-11.844-2.218-18.064-2.218-26.56 0-48.168 13.587-48.168 30.288 0 15.983 19.866 29.262 45.227 30.23a.982.982 0 0 1 .303.059z" fill="#112c41"/></svg></g><g transform="translate(239.0 739.0) rotate(0.0 124.0 50.5) scale(1.0143813092063283 1.0010803738688288)"><svg width="244.484" height="100.891" viewBox="0 0 244.484 100.891"><path d="M242.484 72.838c-1.875-6.212-9.424-10.893-18.529-10.893-4.54 0-8.704 1.163-11.97 3.097.375-.893.719-1.806 1.012-2.747 5.425-17.414-5.641-36.349-24.717-42.292-14.206-4.426-28.844-.394-37.635 9.143C145.799 12.94 129.236 1 109.539 1 86.041 1 66.993 17.989 66.993 38.947c0 1.456.101 2.89.28 4.303-6.347-1.22-13.31-1.584-20.553-.899C19.847 44.903 1 60.741 1 77.894 1 89.677 8.866 95.366 14.603 97.95c2.884 1.298 6.014 1.942 9.176 1.942h195.935c12.78 0 27.813-10.349 22.769-27.054z" fill="#fff"/><path d="M219.714 100.891H23.78c-3.37 0-6.595-.684-9.587-2.03C8.892 96.474 0 90.578 0 77.894 0 59.589 20.044 43.88 46.625 41.355c6.682-.634 13.238-.406 19.509.671a34.516 34.516 0 0 1-.142-3.079C65.993 17.471 85.528 0 109.539 0c19.061 0 35.883 11.127 41.544 27.257 9.404-9.211 23.92-12.437 37.494-8.21 9.465 2.948 17.318 9.091 22.112 17.295 4.812 8.233 5.97 17.556 3.262 26.25l-.123.385c3.052-1.335 6.504-2.032 10.126-2.032 9.411 0 17.424 4.771 19.487 11.604 2.042 6.765 1.076 13.096-2.796 18.309-4.527 6.096-12.743 10.034-20.931 10.034zM53.957 43.006c-2.359 0-4.742.113-7.143.34C21.266 45.773 2 60.626 2 77.894c0 10.979 7.077 16.47 13.014 19.143 2.732 1.23 5.681 1.854 8.766 1.854h195.934c7.577 0 15.163-3.622 19.326-9.227 3.479-4.685 4.339-10.403 2.486-16.538-1.781-5.899-9.171-10.182-17.572-10.182-4.17 0-8.24 1.05-11.461 2.957a1.002 1.002 0 0 1-1.432-1.248c.393-.933.713-1.802.979-2.657 2.539-8.15 1.446-16.903-3.079-24.646-4.542-7.772-11.993-13.595-20.98-16.394-13.418-4.183-27.786-.701-36.602 8.865a1.01 1.01 0 0 1-.96.297 1.001 1.001 0 0 1-.733-.688C144.857 13.28 128.347 2 109.539 2 86.63 2 67.993 18.574 67.993 38.947c0 1.346.091 2.751.272 4.178a.999.999 0 0 1-1.181 1.107 69.53 69.53 0 0 0-13.127-1.227z" fill="#112c41"/><path d="M105.388 99.891H23.857c-3.27 0-6.505-.677-9.475-2.044C8.665 95.214 1 89.529 1 77.894c0-17.156 18.847-32.991 45.72-35.543 7.244-.69 14.201-.322 20.549.897a35.481 35.481 0 0 1-.276-4.301c0-19.33 16.202-35.279 37.142-37.648v.012C78.492 13.649 76.887 37.137 81.423 58.604c.169.801-.687 1.415-1.399 1.012-20.969-11.854-55.577.48-55.577 14.978 0 18.398 59.542 24.148 80.941 25.298z" fill="#dedffe"/><path d="M219.711 100.891H23.78c-3.368 0-6.594-.684-9.587-2.031C8.892 96.469 0 90.568 0 77.894 0 59.589 20.044 43.88 46.625 41.355c6.671-.638 13.227-.41 19.509.67a34.434 34.434 0 0 1-.141-3.078c0-19.576 16.349-36.19 38.029-38.643A50.658 50.658 0 0 1 109.539 0c19.057 0 35.881 11.128 41.547 27.261 9.394-9.212 23.913-12.437 37.496-8.209 9.464 2.944 17.316 9.084 22.111 17.288 4.811 8.233 5.967 17.555 3.257 26.247-.039.128-.08.257-.122.387 3.052-1.333 6.503-2.029 10.126-2.029 9.409 0 17.42 4.771 19.482 11.601 2.044 6.767 1.079 13.099-2.792 18.313-4.526 6.095-12.743 10.033-20.934 10.033zM53.963 43.004c-2.362 0-4.747.113-7.148.342C21.266 45.773 2 60.626 2 77.894c0 10.972 7.077 16.465 13.015 19.143 2.733 1.23 5.682 1.854 8.765 1.854h195.931c7.58 0 15.167-3.621 19.328-9.226 3.479-4.685 4.337-10.405 2.483-16.542-1.78-5.898-9.168-10.179-17.567-10.179-4.171 0-8.242 1.049-11.461 2.953a1 1 0 0 1-1.429-1.254c.387-.903.715-1.793.975-2.646 2.542-8.155 1.451-16.907-3.073-24.649-4.542-7.771-11.992-13.592-20.978-16.387-13.432-4.185-27.797-.702-36.604 8.863a1 1 0 0 1-1.693-.39C144.855 13.282 128.345 2 109.539 2c-1.751 0-3.533.099-5.295.293-20.665 2.338-36.251 18.096-36.251 36.654 0 1.329.088 2.696.269 4.18a1 1 0 0 1-1.181 1.104 69.503 69.503 0 0 0-13.117-1.227z" fill="#112c41"/></svg></g><g transform="translate(515.0 592.0) rotate(0.0 37.5 37.5) scale(1.5167448632907297 1.5155189136760427)"><svg width="49.448" height="49.488" viewBox="0 0 49.448 49.488"><g fill="#cbc8ff"><path d="M25.458 1.616c2.318 10.152 12.587 20.537 22.364 22.713a.422.422 0 0 1 0 .83c-9.777 2.176-20.046 12.561-22.364 22.713a.416.416 0 0 1-.818-.012c-2.05-9.942-12.693-20.48-23.023-22.707a.417.417 0 0 1 0-.818C11.947 22.107 22.59 11.57 24.64 1.628a.416.416 0 0 1 .818-.012z"/><path d="M25.052 49.488h-.019a1.7 1.7 0 0 1-1.648-1.369c-1.95-9.456-12.249-19.6-22.039-21.713a1.7 1.7 0 0 1 0-3.325c9.791-2.11 20.09-12.256 22.04-21.712a1.7 1.7 0 0 1 3.322-.039c2.215 9.7 12.012 19.66 21.393 21.748a1.7 1.7 0 0 1 0 3.332c-9.382 2.09-19.179 12.047-21.394 21.747a1.691 1.691 0 0 1-1.655 1.331zM4.846 24.744c8.816 3.114 17.187 11.367 20.228 19.937 3.148-8.6 11.281-16.854 19.648-19.937-8.367-3.083-16.5-11.335-19.648-19.938-3.041 8.57-11.412 16.823-20.228 19.938z"/></g></svg></g><g transform="translate(1076.0 470.0) rotate(0.0 24.0 24.0) scale(0.970716712506067 0.9699321047526673)"><svg width="49.448" height="49.488" viewBox="0 0 49.448 49.488"><g fill="#cbc8ff"><path d="M25.458 1.616c2.318 10.152 12.587 20.537 22.364 22.713a.422.422 0 0 1 0 .83c-9.777 2.176-20.046 12.561-22.364 22.713a.416.416 0 0 1-.818-.012c-2.05-9.942-12.693-20.48-23.023-22.707a.417.417 0 0 1 0-.818C11.947 22.107 22.59 11.57 24.64 1.628a.416.416 0 0 1 .818-.012z"/><path d="M25.052 49.488h-.019a1.7 1.7 0 0 1-1.648-1.369c-1.95-9.456-12.249-19.6-22.039-21.713a1.7 1.7 0 0 1 0-3.325c9.791-2.11 20.09-12.256 22.04-21.712a1.7 1.7 0 0 1 3.322-.039c2.215 9.7 12.012 19.66 21.393 21.748a1.7 1.7 0 0 1 0 3.332c-9.382 2.09-19.179 12.047-21.394 21.747a1.691 1.691 0 0 1-1.655 1.331zM4.846 24.744c8.816 3.114 17.187 11.367 20.228 19.937 3.148-8.6 11.281-16.854 19.648-19.937-8.367-3.083-16.5-11.335-19.648-19.938-3.041 8.57-11.412 16.823-20.228 19.938z"/></g></svg></g><g transform="translate(356.0 351.0) rotate(0.0 24.0 24.0) scale(0.970716712506067 0.9699321047526673)"><svg width="49.448" height="49.488" viewBox="0 0 49.448 49.488"><g fill="#cbc8ff"><path d="M25.458 1.616c2.318 10.152 12.587 20.537 22.364 22.713a.422.422 0 0 1 0 .83c-9.777 2.176-20.046 12.561-22.364 22.713a.416.416 0 0 1-.818-.012c-2.05-9.942-12.693-20.48-23.023-22.707a.417.417 0 0 1 0-.818C11.947 22.107 22.59 11.57 24.64 1.628a.416.416 0 0 1 .818-.012z"/><path d="M25.052 49.488h-.019a1.7 1.7 0 0 1-1.648-1.369c-1.95-9.456-12.249-19.6-22.039-21.713a1.7 1.7 0 0 1 0-3.325c9.791-2.11 20.09-12.256 22.04-21.712a1.7 1.7 0 0 1 3.322-.039c2.215 9.7 12.012 19.66 21.393 21.748a1.7 1.7 0 0 1 0 3.332c-9.382 2.09-19.179 12.047-21.394 21.747a1.691 1.691 0 0 1-1.655 1.331zM4.846 24.744c8.816 3.114 17.187 11.367 20.228 19.937 3.148-8.6 11.281-16.854 19.648-19.937-8.367-3.083-16.5-11.335-19.648-19.938-3.041 8.57-11.412 16.823-20.228 19.938z"/></g></svg></g><g transform="translate(1413.0 410.0) rotate(0.0 27.0 27.0) scale(1.0920563015693254 1.0911736178467508)"><svg width="49.448" height="49.488" viewBox="0 0 49.448 49.488"><g fill="#cbc8ff"><path d="M25.458 1.616c2.318 10.152 12.587 20.537 22.364 22.713a.422.422 0 0 1 0 .83c-9.777 2.176-20.046 12.561-22.364 22.713a.416.416 0 0 1-.818-.012c-2.05-9.942-12.693-20.48-23.023-22.707a.417.417 0 0 1 0-.818C11.947 22.107 22.59 11.57 24.64 1.628a.416.416 0 0 1 .818-.012z"/><path d="M25.052 49.488h-.019a1.7 1.7 0 0 1-1.648-1.369c-1.95-9.456-12.249-19.6-22.039-21.713a1.7 1.7 0 0 1 0-3.325c9.791-2.11 20.09-12.256 22.04-21.712a1.7 1.7 0 0 1 3.322-.039c2.215 9.7 12.012 19.66 21.393 21.748a1.7 1.7 0 0 1 0 3.332c-9.382 2.09-19.179 12.047-21.394 21.747a1.691 1.691 0 0 1-1.655 1.331zM4.846 24.744c8.816 3.114 17.187 11.367 20.228 19.937 3.148-8.6 11.281-16.854 19.648-19.937-8.367-3.083-16.5-11.335-19.648-19.938-3.041 8.57-11.412 16.823-20.228 19.938z"/></g></svg></g><g transform="translate(318.0 439.0) rotate(0.0 22.0 22.0) scale(0.8898236531305614 0.8891044293566117)"><svg width="49.448" height="49.488" viewBox="0 0 49.448 49.488"><path d="M25.458 1.616c2.318 10.152 12.587 20.537 22.364 22.713a.422.422 0 0 1 0 .83c-9.777 2.176-20.046 12.561-22.364 22.713a.416.416 0 0 1-.818-.012c-2.05-9.942-12.693-20.48-23.023-22.707a.417.417 0 0 1 0-.818C11.947 22.107 22.59 11.57 24.64 1.628a.416.416 0 0 1 .818-.012z" fill="#fff"/><path d="M25.052 49.488h-.018a1.7 1.7 0 0 1-1.649-1.368c-1.95-9.457-12.249-19.6-22.038-21.714a1.7 1.7 0 0 1 0-3.324c9.789-2.111 20.088-12.257 22.038-21.713a1.7 1.7 0 0 1 3.322-.039c2.216 9.7 12.012 19.659 21.394 21.747a1.7 1.7 0 0 1 0 3.332C38.72 28.5 28.923 38.457 26.707 48.157a1.691 1.691 0 0 1-1.655 1.331zM4.846 24.744c8.816 3.114 17.187 11.367 20.228 19.937 3.148-8.6 11.281-16.854 19.648-19.937-8.367-3.083-16.5-11.335-19.648-19.937-3.041 8.569-11.411 16.822-20.228 19.937z" fill="#cbc8ff"/></svg></g><g transform="translate(1032.0 413.0) rotate(0.0 22.0 22.0) scale(0.8898236531305614 0.8891044293566117)"><svg width="49.448" height="49.488" viewBox="0 0 49.448 49.488"><path d="M25.458 1.616c2.318 10.152 12.587 20.537 22.364 22.713a.422.422 0 0 1 0 .83c-9.777 2.176-20.046 12.561-22.364 22.713a.416.416 0 0 1-.818-.012c-2.05-9.942-12.693-20.48-23.023-22.707a.417.417 0 0 1 0-.818C11.947 22.107 22.59 11.57 24.64 1.628a.416.416 0 0 1 .818-.012z" fill="#fff"/><path d="M25.052 49.488h-.018a1.7 1.7 0 0 1-1.649-1.368c-1.95-9.457-12.249-19.6-22.038-21.714a1.7 1.7 0 0 1 0-3.324c9.789-2.111 20.088-12.257 22.038-21.713a1.7 1.7 0 0 1 3.322-.039c2.216 9.7 12.012 19.659 21.394 21.747a1.7 1.7 0 0 1 0 3.332C38.72 28.5 28.923 38.457 26.707 48.157a1.691 1.691 0 0 1-1.655 1.331zM4.846 24.744c8.816 3.114 17.187 11.367 20.228 19.937 3.148-8.6 11.281-16.854 19.648-19.937-8.367-3.083-16.5-11.335-19.648-19.937-3.041 8.569-11.411 16.822-20.228 19.937z" fill="#cbc8ff"/></svg></g><g transform="translate(845.0 169.0) rotate(0.0 25.0 25.0) scale(1.0111632421938197 1.010345942450695)"><svg width="49.448" height="49.488" viewBox="0 0 49.448 49.488"><path d="M25.458 1.616c2.318 10.152 12.587 20.537 22.364 22.713a.422.422 0 0 1 0 .83c-9.777 2.176-20.046 12.561-22.364 22.713a.416.416 0 0 1-.818-.012c-2.05-9.942-12.693-20.48-23.023-22.707a.417.417 0 0 1 0-.818C11.947 22.107 22.59 11.57 24.64 1.628a.416.416 0 0 1 .818-.012z" fill="#fff"/><path d="M25.052 49.488h-.018a1.7 1.7 0 0 1-1.649-1.368c-1.95-9.457-12.249-19.6-22.038-21.714a1.7 1.7 0 0 1 0-3.324c9.789-2.111 20.088-12.257 22.038-21.713a1.7 1.7 0 0 1 3.322-.039c2.216 9.7 12.012 19.659 21.394 21.747a1.7 1.7 0 0 1 0 3.332C38.72 28.5 28.923 38.457 26.707 48.157a1.691 1.691 0 0 1-1.655 1.331zM4.846 24.744c8.816 3.114 17.187 11.367 20.228 19.937 3.148-8.6 11.281-16.854 19.648-19.937-8.367-3.083-16.5-11.335-19.648-19.937-3.041 8.569-11.411 16.822-20.228 19.937z" fill="#cbc8ff"/></svg></g></svg>