<svg xmlns="http://www.w3.org/2000/svg" viewBox="0 0 4000 3000" width="4000" height="3000"><g transform="translate(2049.0 315.0) rotate(0.0 486.5 275.5) scale(1.0082901554404144 1.0088101532805553)"><svg width="965" height="546.188" viewBox="0 0 965 546.188"><path d="M183.12 2.5C83.37 2.5 2.5 83.374 2.5 183.126v19.937c0 99.751 80.87 180.625 180.62 180.625h472.72l266.66 160-125.06-160.781c92.45-7.906 165.06-85.346 165.06-179.844v-19.937C962.5 83.374 881.63 2.5 781.88 2.5z" fill="#ffaac3"/><path d="M922.499 546.188c-.441 0-.885-.116-1.285-.356L655.148 386.188H183.12C82.147 386.188 0 304.039 0 203.063v-19.938C0 82.15 82.147 0 183.12 0h598.76C882.853 0 965 82.15 965 183.126v19.938c0 46.146-17.233 90.216-48.525 124.09-30.062 32.543-70.497 52.956-114.277 57.799l122.275 157.201a2.5 2.5 0 0 1-1.974 4.034zM183.12 5C84.904 5 5 84.907 5 183.126v19.938c0 98.219 79.904 178.125 178.12 178.125h472.72c.453 0 .897.123 1.286.356l255.183 153.113-116.842-150.216a2.498 2.498 0 0 1 1.761-4.026c44.278-3.786 85.323-23.907 115.575-56.655C943.238 290.813 960 247.949 960 203.063v-19.938C960 84.907 880.096 5 781.88 5z"/><path d="M762.5 86.188h-540a2.5 2.5 0 1 1 0-5h540a2.5 2.5 0 1 1 0 5zm-40 60h-400a2.5 2.5 0 1 1 0-5h400a2.5 2.5 0 1 1 0 5zm0 60h-460a2.5 2.5 0 1 1 0-5h460a2.5 2.5 0 1 1 0 5z"/><g fill="#ef4910"><path d="M829.34 254.031c-5.523 0-10-4.478-10-10 0-21.541 14.785-39.123 27.83-54.636 17.021-20.241 24.326-31.088 17.806-43.073-11.566-21.258-33.23-22.205-48.465-14.088-20.548 10.946-20.219 29.441-13.694 41.954 2.554 4.897.654 10.938-4.243 13.491-4.899 2.552-10.938.653-13.491-4.243-7.197-13.802-8.315-28.059-3.232-41.231 4.438-11.5 13.407-21.311 25.256-27.623 12.583-6.702 26.796-8.72 40.025-5.681 15.143 3.479 27.388 13.115 35.412 27.863 13.754 25.283-4.214 46.65-20.067 65.503-11.375 13.526-23.137 27.514-23.137 41.764 0 5.523-4.477 10-10 10zm-10.88 19.063c0-5.523 4.48-10 10-10s10 4.477 10 10-4.48 10-10 10-10-4.477-10-10z"/></g></svg></g><g transform="translate(773.0 1358.0) rotate(0.0 452.5 612.5) scale(1.0 1.0)"><svg width="905" height="1225" viewBox="0 0 905 1225"><path d="m622.5 662.5-160-660h-340l160 660-280 560h60l260-500h360l160 500h60l-180-560h-380" fill="#fff"/><path d="M902.5 1225h-60a2.499 2.499 0 0 1-2.381-1.738L680.675 725H324.018l-259.3 498.653A2.5 2.5 0 0 1 62.5 1225h-60a2.501 2.501 0 0 1-2.235-3.619L279.855 662.2 120.07 3.089A2.499 2.499 0 0 1 122.5 0h340a2.5 2.5 0 0 1 2.43 1.911L624.466 660H722.5a2.5 2.5 0 0 1 2.38 1.735l180 560a2.498 2.498 0 0 1-2.38 3.265zm-58.175-5h54.746L720.678 665H342.5a2.5 2.5 0 1 1 0-5h276.821L460.534 5H125.679L284.93 661.911c.139.574.07 1.179-.194 1.707L6.545 1220h54.438l259.3-498.653a2.5 2.5 0 0 1 2.218-1.347h360c1.087 0 2.05.702 2.381 1.738z"/></svg></g><g transform="translate(1059.0 748.0) rotate(0.0 779.5 917.5) scale(1.0005378131413807 1.0000904713995926)"><svg width="1558.162" height="1834.834" viewBox="0 0 1558.162 1834.834"><path d="M1008.324 1552.744s-113.57 179.41-53.57 279.41h600s23.94-200.85-173.92-240.96c-156.96-31.81-225.261 70.7-372.51-38.45z" fill="#fff"/><path d="M1554.754 1834.653h-600a2.501 2.501 0 0 1-2.144-1.214c-13.955-23.259-19.773-52.634-17.292-87.31 1.971-27.554 9.161-58.52 21.371-92.037 20.745-56.947 49.236-102.235 49.521-102.686a2.5 2.5 0 0 1 3.6-.672c87.557 64.901 146.258 54.346 214.224 42.127 44.118-7.932 94.122-16.923 157.294-4.119 45.603 9.244 83.243 27.821 111.88 55.215 22.925 21.931 40.134 49.504 51.149 81.953 18.714 55.125 12.938 106.03 12.878 106.538a2.496 2.496 0 0 1-2.481 2.205zm-598.573-5h596.299c.854-10.245 3.299-54.669-12.913-102.304-10.77-31.644-27.556-58.51-49.892-79.853-27.933-26.689-64.72-44.809-109.339-53.854-62.237-12.614-109.607-4.098-155.415 4.14-34.036 6.119-66.186 11.898-101.064 7.882-38.343-4.415-74.892-20.097-114.828-49.297-5.979 9.843-29.747 50.287-47.671 99.519-12.039 33.067-19.123 63.564-21.056 90.645-2.355 33.005 2.986 60.961 15.879 83.122z"/><path d="M940.214 1771.904s.43 29.24 15.4 57.55l596.56-.03s2.76-20.64-1.82-56.72z" fill="#92acef"/><path d="M1551.974 1775.063h-.002l-613.9-.42a2.5 2.5 0 0 1 .002-5h.002l613.9.42a2.5 2.5 0 0 1-.002 5z"/><path d="m1034.994 1772.474-.63 57.58" fill="#fff"/><path d="M1034.364 1832.554h-.028a2.501 2.501 0 0 1-2.473-2.527l.63-57.58a2.502 2.502 0 0 1 2.499-2.473h.028a2.501 2.501 0 0 1 2.473 2.527l-.63 57.58a2.5 2.5 0 0 1-2.499 2.473z"/><path d="m1076.553 1773.214-.63 57.58" fill="#fff"/><path d="M1075.925 1833.294h-.028a2.501 2.501 0 0 1-2.473-2.527l.63-57.58a2.502 2.502 0 0 1 2.499-2.473h.028a2.501 2.501 0 0 1 2.473 2.527l-.63 57.58a2.502 2.502 0 0 1-2.499 2.473z"/><path d="m1111.244 1772.794-.63 57.58" fill="#fff"/><path d="M1110.614 1832.874h-.028a2.501 2.501 0 0 1-2.473-2.527l.63-57.58a2.502 2.502 0 0 1 2.499-2.473h.028a2.501 2.501 0 0 1 2.473 2.527l-.63 57.58a2.5 2.5 0 0 1-2.499 2.473z"/><path d="m1216.164 1774.304-.63 57.58" fill="#fff"/><path d="M1215.534 1834.384h-.028a2.501 2.501 0 0 1-2.473-2.527l.63-57.58c.016-1.381 1.108-2.511 2.527-2.473a2.501 2.501 0 0 1 2.473 2.527l-.63 57.58a2.5 2.5 0 0 1-2.499 2.473z"/><path d="m1254.214 1773.504-.63 57.58" fill="#fff"/><path d="M1253.584 1833.584h-.028a2.501 2.501 0 0 1-2.473-2.527l.631-57.58a2.502 2.502 0 0 1 2.499-2.473h.028a2.501 2.501 0 0 1 2.473 2.527l-.631 57.58a2.502 2.502 0 0 1-2.499 2.473z"/><path d="m1394.573 1772.734-.63 57.57" fill="#fff"/><path d="M1393.944 1832.804h-.028a2.501 2.501 0 0 1-2.473-2.527l.63-57.57c.015-1.381 1.151-2.455 2.527-2.473a2.501 2.501 0 0 1 2.473 2.527l-.63 57.57a2.5 2.5 0 0 1-2.499 2.473z"/><path d="m1476.274 1774.674-.63 57.57" fill="#fff"/><path d="M1475.645 1834.744h-.028a2.501 2.501 0 0 1-2.473-2.527l.63-57.57c.016-1.381 1.104-2.468 2.527-2.473a2.501 2.501 0 0 1 2.473 2.527l-.63 57.57a2.502 2.502 0 0 1-2.499 2.473z"/><path d="m1511.904 1774.084-.64 57.58" fill="#fff"/><path d="M1511.265 1834.164h-.028a2.501 2.501 0 0 1-2.473-2.527l.64-57.58a2.502 2.502 0 0 1 2.499-2.473h.028a2.501 2.501 0 0 1 2.473 2.527l-.64 57.58a2.502 2.502 0 0 1-2.499 2.473z"/><path d="M1018.884 1689.494c0-26.71 21.65-48.36 48.36-48.36s48.36 21.65 48.36 48.36-21.65 48.36-48.36 48.36-48.36-21.65-48.36-48.36z" fill="#92acef"/><path d="M1067.243 1740.353c-28.044 0-50.859-22.815-50.859-50.859 0-28.045 22.815-50.86 50.859-50.86 28.045 0 50.86 22.815 50.86 50.86.001 28.044-22.815 50.859-50.86 50.859zm0-96.719c-25.287 0-45.859 20.573-45.859 45.86s20.572 45.859 45.859 45.859 45.86-20.572 45.86-45.859-20.573-45.86-45.86-45.86z"/><path d="M1249.374 1591.244s180 145.88 253.83 67.54c0 0-60.621-96.24-253.83-67.54z" fill="#92acef"/><path d="M1444.72 1684.4c-4.063 0-8.252-.211-12.567-.632-24.416-2.382-52.897-11.512-84.654-27.134-53.857-26.495-99.247-63.082-99.699-63.448a2.499 2.499 0 0 1 1.207-4.415c44.318-6.583 85.335-7.105 121.914-1.554 29.339 4.453 55.91 12.803 78.977 24.816 20.579 10.719 34.509 22.438 42.57 30.38 8.808 8.678 12.69 14.782 12.852 15.038a2.502 2.502 0 0 1-.296 3.047c-14.974 15.889-35.221 23.902-60.304 23.902zm-189.19-91.509c12.782 9.836 50.735 37.897 94.242 59.291 31.203 15.343 59.094 24.297 82.899 26.614 28.486 2.772 51.111-4.047 67.303-20.272-4.137-5.653-20.078-25.304-52.726-42.23-62.087-32.191-137.455-30.827-191.718-23.403z"/><path d="M492.154 955.374s515.69-44.01 618.12 115.06c102.43 159.08 221.28 514.85 221.28 514.85s-49.43-5.52-122.05 15.49c-117.05 33.85-184.31 31.04-230.71 2.55l-144.75-331.56h-424.82s-133.94-217.23 82.93-316.39z" fill="#6f5490"/><path d="M1068.127 1627.846c-36.806.002-66.337-7.469-90.642-22.391a2.5 2.5 0 0 1-.982-1.131l-144.096-330.061H409.224c-.867 0-1.673-.45-2.128-1.188-.157-.255-15.853-25.915-27.733-62.962-10.988-34.267-20.9-85.616-5.713-135.649 15.823-52.128 55.345-92.961 117.464-121.364.262-.12.541-.193.827-.217 1.292-.11 130.73-10.916 271.019-2.126 82.47 5.168 152.525 15.999 208.219 32.19 69.992 20.349 117.498 49.328 141.197 86.133 53.024 82.35 110.445 218.125 149.278 317.524 42.053 107.641 71.975 196.998 72.271 197.888a2.498 2.498 0 0 1-2.648 3.276c-.491-.052-49.85-5.2-121.079 15.406-56.893 16.454-103.48 24.671-142.071 24.672zM980.77 1601.6c48.465 29.354 118.856 28.347 228.04-3.229 60.847-17.604 106.094-16.642 119.169-15.866-5.986-17.676-33.718-98.698-70.991-194.105-38.748-99.179-96.019-234.617-148.815-316.614-23.025-35.757-69.578-64.03-138.366-84.032-55.332-16.089-125.013-26.857-207.104-32.004-135.879-8.52-261.567 1.397-269.905 2.078-60.518 27.768-98.992 67.488-114.354 118.06-14.811 48.759-5.108 99.001 5.639 132.563 10.26 32.041 23.398 55.405 26.563 60.811h423.399a2.5 2.5 0 0 1 2.291 1.5z"/><path d="M76.354 910.324c-3.03-1.96-93.817 95.25-69.82 222.25 24 127 134 139 134 139h378s-172.24 208.26-210.24 283.26c0 0 42.99 47.74 112.34 51.77 69.36 4.03 183.37-26.54 272.23-13.43 0 0 226-309.53 257.03-390.92 46.63-122.27 24.33-285.82-604.15-256.62 0 0-195.39 12.69-269.39-35.31z" fill="#6f5490"/><path d="M434.135 1609.471c-4.716 0-9.268-.117-13.646-.371-69.571-4.042-113.616-52.107-114.053-52.593a2.5 2.5 0 0 1-.373-2.803c34.741-68.567 182.857-250.021 207.174-279.63H140.533c-.091 0-.181-.005-.271-.015-1.146-.125-28.415-3.279-59.044-22.234-28.255-17.486-64.574-52.288-77.141-118.787-23.276-123.185 59.715-217.575 69.867-224.398.535-.359 2.163-1.455 3.767-.416l.003.001c72.467 47.005 265.921 35.039 267.867 34.913 179.72-8.351 322.325-1.304 423.913 20.939 86.331 18.903 145.157 49.289 174.846 90.313 28.476 39.349 31.057 88.006 7.89 148.753-30.796 80.774-248.111 378.854-257.347 391.504a2.513 2.513 0 0 1-2.385.999c-51.333-7.573-112.314-.335-166.116 6.053-33.514 3.981-65.452 7.772-92.247 7.772zm-122.805-55.079c7.322 7.447 48.197 46.156 109.448 49.715 28.821 1.677 65.828-2.719 105.015-7.372 53.593-6.362 114.269-13.565 165.937-6.251 15.522-21.324 226.25-311.541 255.828-389.121 22.52-59.049 20.142-106.165-7.269-144.041-28.946-40-86.77-69.728-171.864-88.36-101.161-22.15-243.332-29.159-422.565-20.831-.444.029-49.61 3.146-107.183.344-76.563-3.726-131.219-15.599-162.49-35.292-4.808 3.828-25.933 26.5-44.474 64.73-17.024 35.104-34.786 90.352-22.723 154.195 5.405 28.605 15.712 53.604 30.634 74.299 11.917 16.529 26.796 30.378 44.225 41.164 28.645 17.727 54.807 21.251 56.832 21.501h377.853a2.5 2.5 0 0 1 1.927 4.094c-1.71 2.067-170.11 206.014-209.131 281.226z"/><path d="M516.963 1275.774a2.5 2.5 0 0 1-1.876-4.152l90.58-102.9a2.5 2.5 0 0 1 3.754 3.303l-90.58 102.9a2.494 2.494 0 0 1-1.878.849z"/><path d="M309.234 1552.834s-113.57 179.41-53.57 279.41h600s23.93-200.85-173.92-240.96c-156.97-31.82-225.26 70.69-372.51-38.45z" fill="#fff"/><path d="M855.663 1834.744h-600a2.501 2.501 0 0 1-2.144-1.214c-13.955-23.259-19.773-52.634-17.292-87.31 1.972-27.555 9.162-58.52 21.372-92.037 20.744-56.947 49.236-102.236 49.521-102.687a2.5 2.5 0 0 1 3.6-.672c87.55 64.893 146.245 54.338 214.21 42.122 44.12-7.932 94.124-16.922 157.309-4.113 45.599 9.244 83.239 27.821 111.874 55.215 22.925 21.931 40.134 49.503 51.15 81.953 18.714 55.125 12.941 106.03 12.881 106.538a2.497 2.497 0 0 1-2.481 2.205zm-598.573-5h596.299c.853-10.245 3.296-54.669-12.916-102.304-10.771-31.645-27.557-58.511-49.893-79.853-27.932-26.689-64.717-44.809-109.334-53.854-62.243-12.619-109.618-4.103-155.43 4.134-34.033 6.118-66.184 11.896-101.057 7.881-38.341-4.416-74.887-20.095-114.821-49.292-5.979 9.843-29.747 50.288-47.671 99.521-12.04 33.067-19.124 63.564-21.056 90.644-2.355 33.006 2.986 60.962 15.879 83.123z"/><path d="M241.124 1771.994s.43 29.24 15.4 57.55l596.55-.04s2.77-20.63-1.81-56.72z" fill="#92acef"/><path d="M852.884 1775.153h-.002l-613.9-.43a2.5 2.5 0 0 1 .002-5h.002l613.9.43a2.5 2.5 0 0 1-.002 5z"/><path d="m335.904 1772.564-.63 57.58" fill="#fff"/><path d="M335.274 1832.643h-.028a2.501 2.501 0 0 1-2.473-2.527l.63-57.58a2.502 2.502 0 0 1 2.499-2.473h.028a2.501 2.501 0 0 1 2.473 2.527l-.63 57.58a2.5 2.5 0 0 1-2.499 2.473z"/><path d="m377.464 1773.304-.63 57.58" fill="#fff"/><path d="M376.835 1833.384h-.028a2.501 2.501 0 0 1-2.473-2.527l.63-57.58c.016-1.381 1.105-2.475 2.527-2.473a2.501 2.501 0 0 1 2.473 2.527l-.63 57.58a2.502 2.502 0 0 1-2.499 2.473z"/><path d="m412.154 1772.884-.63 57.57" fill="#fff"/><path d="M411.524 1832.954h-.028a2.501 2.501 0 0 1-2.473-2.527l.63-57.57c.016-1.381 1.115-2.468 2.527-2.473a2.501 2.501 0 0 1 2.473 2.527l-.63 57.57a2.5 2.5 0 0 1-2.499 2.473z"/><path d="m517.074 1774.394-.63 57.58" fill="#fff"/><path d="M516.444 1834.474h-.028a2.501 2.501 0 0 1-2.473-2.527l.63-57.58c.016-1.381 1.119-2.463 2.527-2.473a2.501 2.501 0 0 1 2.473 2.527l-.63 57.58a2.5 2.5 0 0 1-2.499 2.473z"/><path d="m555.124 1773.594-.63 57.58" fill="#fff"/><path d="M554.494 1833.674h-.028a2.501 2.501 0 0 1-2.473-2.527l.63-57.58a2.502 2.502 0 0 1 2.499-2.473h.028a2.501 2.501 0 0 1 2.473 2.527l-.63 57.58a2.5 2.5 0 0 1-2.499 2.473z"/><path d="m695.484 1772.824-.63 57.57" fill="#fff"/><path d="M694.855 1832.893h-.028a2.501 2.501 0 0 1-2.473-2.527l.63-57.569a2.502 2.502 0 0 1 2.499-2.473h.028a2.501 2.501 0 0 1 2.473 2.527l-.63 57.569a2.5 2.5 0 0 1-2.499 2.473z"/><path d="m777.184 1774.754-.63 57.58" fill="#fff"/><path d="M776.555 1834.834h-.028a2.501 2.501 0 0 1-2.473-2.527l.63-57.58a2.502 2.502 0 0 1 2.499-2.473h.028a2.501 2.501 0 0 1 2.473 2.527l-.63 57.58a2.502 2.502 0 0 1-2.499 2.473z"/><path d="m812.804 1774.174-.63 57.58" fill="#fff"/><path d="M812.175 1834.254h-.028a2.501 2.501 0 0 1-2.473-2.527l.63-57.58c.015-1.381 1.158-2.519 2.527-2.473a2.501 2.501 0 0 1 2.473 2.527l-.63 57.58a2.502 2.502 0 0 1-2.499 2.473z"/><path d="M319.784 1689.584c0-26.71 21.66-48.36 48.36-48.36 26.71 0 48.36 21.65 48.36 48.36s-21.65 48.36-48.36 48.36c-26.7 0-48.36-21.65-48.36-48.36z" fill="#92acef"/><path d="M368.144 1740.443c-28.045 0-50.86-22.815-50.86-50.859 0-28.045 22.815-50.86 50.86-50.86s50.86 22.815 50.86 50.86c0 28.044-22.815 50.859-50.86 50.859zm0-96.719c-25.287 0-45.86 20.573-45.86 45.86s20.573 45.859 45.86 45.859 45.86-20.572 45.86-45.859-20.573-45.86-45.86-45.86z"/><path d="M550.284 1591.334s180 145.88 253.82 67.54c0 0-60.61-96.24-253.82-67.54z" fill="#92acef"/><path d="M745.625 1684.49c-4.062 0-8.252-.211-12.566-.632-24.415-2.382-52.896-11.512-84.651-27.134-53.856-26.495-99.246-63.082-99.698-63.448a2.499 2.499 0 0 1 1.207-4.415c44.316-6.584 85.333-7.106 121.912-1.554 29.339 4.453 55.909 12.803 78.974 24.816 20.578 10.719 34.507 22.438 42.567 30.38 8.806 8.678 12.688 14.782 12.85 15.038a2.502 2.502 0 0 1-.296 3.047c-14.972 15.888-35.217 23.902-60.299 23.902zm-189.185-91.51c12.782 9.836 50.735 37.897 94.241 59.291 31.202 15.343 59.092 24.297 82.896 26.614 28.487 2.776 51.109-4.047 67.298-20.272-4.136-5.653-20.075-25.304-52.721-42.23-62.084-32.19-137.45-30.827-191.714-23.403z"/><path d="M307.944 472.554s32.57-72.87 148.51-48.03c115.94 24.85 120.36 71.22 120.36 71.22s116.25 27.58 192.24 238.34c0 0 365.46-55.82 365.37 115.37-.03 61.84-53.37 98.79-115.26 101.53-232.84 10.31-708.26 8.35-883.5 1.26-56.61-2.29-125.86-45.47-121.37-147.91 4.499-102.43 158.16-316.01 293.65-331.78z" fill="#fbb348"/><path d="M567.65 960.666c-174.986 0-343.447-2.338-432.088-5.925-33.846-1.369-66.185-16.219-88.724-40.742-24.887-27.076-37.004-65.036-35.044-109.775 1.112-25.31 11.135-57.757 28.985-93.835 17.587-35.545 41.544-72.209 69.283-106.029 63.661-77.615 135.095-126.416 196.232-134.126 2.338-4.536 11.284-19.902 31.037-33.091 38.143-25.466 86.116-22.248 119.644-15.065 105.134 22.534 119.991 62.663 122.021 71.666 6.691 1.946 33.132 10.983 67.072 40.24 22.56 19.446 43.744 43.856 62.966 72.552 23.666 35.332 44.411 77.302 61.676 124.78 11.146-1.573 66.526-8.881 130.162-8.409 41.717.306 78.798 3.84 110.215 10.503 39.481 8.374 70.137 21.76 91.113 39.785 23.057 19.813 34.738 45.47 34.723 76.258-.015 29.992-12.237 55.878-35.346 74.858-21.182 17.397-50.411 27.756-82.305 29.168-115.097 5.099-286.273 7.187-451.622 7.187zM411.114 421.943c-23.715 0-48.957 4.734-70.751 19.19-21.891 14.521-30.059 32.266-30.139 32.444a2.507 2.507 0 0 1-1.992 1.46c-60.162 7.002-130.982 55.294-194.303 132.495-27.502 33.531-51.247 69.865-68.668 105.075-17.544 35.459-27.39 67.216-28.472 91.837-1.9 43.383 9.763 80.097 33.729 106.173 21.647 23.551 52.718 37.813 85.245 39.129 172.316 6.972 646.496 9.226 883.288-1.259 30.819-1.365 59-11.322 79.352-28.037 21.915-18 33.506-42.55 33.52-70.997.016-29.262-11.08-53.642-32.979-72.46-25.495-21.909-80.548-48.209-198.038-49.083-70.553-.525-130.875 8.555-131.477 8.646a2.507 2.507 0 0 1-2.729-1.623c-21.518-59.68-60.425-142.282-123.582-196.888-37.716-32.609-66.599-39.8-66.887-39.869a2.5 2.5 0 0 1-1.908-2.194c-.011-.094-1.38-11.218-16.438-25.185-25.466-23.62-69.501-36.871-101.957-43.828-13.172-2.823-28.638-5.026-44.814-5.026zm-103.171 50.611h.01z"/><path d="M505.352 959.354a2.501 2.501 0 0 1-.568-4.935c.116-.028 12.635-3.207 24.517-19.002 20.077-26.693 22.912-68.095 21.755-98.127-.999-25.958-12.134-48.053-33.095-65.672-22.579-18.978-56.867-33.168-101.912-42.176-36.22-7.243-79.389-11.156-128.31-11.63-83.411-.816-155.522 8.802-156.241 8.899a2.5 2.5 0 0 1-.669-4.955c.722-.098 73.137-9.762 156.896-8.944 49.245.475 92.738 4.418 129.272 11.721 45.893 9.174 80.943 23.727 104.179 43.256 22.087 18.564 33.821 41.883 34.876 69.309 1.74 45.145-6.018 79.37-23.058 101.724-12.963 17.006-26.501 20.333-27.071 20.467a2.552 2.552 0 0 1-.571.065zm279.641-174.26a2.501 2.501 0 0 1-2.374-1.717l-16.04-48.58a2.5 2.5 0 0 1 4.748-1.568l16.04 48.58a2.5 2.5 0 0 1-2.374 3.285z"/><path d="M777.064 873.854s37.43-27.38-51.29-80.4c-88.71-53.02-299.41-33.61-300.45 56.49s115.05 73.81 190.6 44.7c0 0 115.4 28.76 125.1-2.08 0 0 39.18 11.09 36.04-18.71z" fill="#ffaac3"/><path d="M506.476 920.172c-24.667 0-44.256-4.946-58.4-14.775-17.044-11.844-25.54-30.51-25.252-55.481.277-24.002 15.08-44.893 42.809-60.413 67.345-37.693 196.835-36.798 261.424 1.805 39.129 23.384 59.423 44.998 60.317 64.24.492 10.603-5.209 17.068-7.707 19.374.512 7.483-1.523 13.208-6.058 17.027-9.019 7.595-25.196 4.885-31.08 3.562-6.103 12.386-28.938 16.471-67.968 12.143-27.166-3.014-53.658-9.235-58.47-10.396-30.045 11.506-61.678 19.275-89.158 21.891-7.163.682-13.986 1.023-20.457 1.023zm88.339-153.511c-47.11 0-94.275 9.033-126.741 27.205-26.077 14.596-39.996 33.998-40.251 56.107-.269 23.212 7.506 40.478 23.104 51.318 37.067 25.758 111.564 11.262 164.098-8.979a2.5 2.5 0 0 1 1.503-.093c31.463 7.838 114.733 23.047 122.11-.404a2.505 2.505 0 0 1 3.064-1.656c.196.055 19.794 5.461 28.689-2.038 3.449-2.909 4.857-7.62 4.185-14.004a2.5 2.5 0 0 1 1.002-2.274c.327-.245 7.337-5.629 6.793-16.177-.617-11.991-11.16-32.145-57.881-60.066-32.213-19.254-80.914-28.939-129.675-28.939z"/><path d="M741.102 894.744a2.5 2.5 0 0 1-2.496-2.397c-1.02-24.769-45.795-36.864-83.177-42.648-41.346-6.398-83.015-6.563-83.431-6.564a2.5 2.5 0 0 1 .006-5h.006c.419.001 42.419.165 84.135 6.616 57.101 8.83 86.525 24.774 87.457 47.391a2.5 2.5 0 0 1-2.396 2.601l-.104.001zm36.19-17.85a2.5 2.5 0 0 1-2.425-1.9c-14.615-59.11-169.267-68.655-170.826-68.744a2.5 2.5 0 0 1-2.354-2.639c.078-1.378 1.235-2.418 2.639-2.353.397.023 40.17 2.388 81.286 12.286 55.888 13.454 87.55 33.725 94.108 60.25a2.5 2.5 0 0 1-2.428 3.1z"/><path d="M1362.034 876.234s37.43-27.38-51.28-80.4c-88.72-53.02-299.41-33.61-300.45 56.49-.58 50.06 61.98 91.15 131.98 88.17 55.97-2.38 54.84-28.73 49.4-41.26 0 0 131.72 33.74 134.38-3.41.14-2.01 33.759 9.26 35.97-19.59z" fill="#ffaac3"/><path d="M1135.312 943.141c-39.781.001-78.767-14.161-103.103-37.756-16.186-15.693-24.626-34.052-24.405-53.091.277-24.002 15.079-44.892 42.806-60.412 67.338-37.693 196.83-36.799 261.427 1.805 39.124 23.383 59.414 44.996 60.308 64.238.507 10.907-5.541 17.436-7.914 19.563-.73 6.928-3.302 12.271-7.652 15.89-8.33 6.93-21.013 5.573-27.105 4.922-.452-.048-.948-.102-1.404-.145-.818 4.091-3.121 7.52-6.866 10.218-24.077 17.346-105.521-.732-125.85-5.612 1.445 5.367 2.165 13.393-2.652 21.087-7.253 11.585-24.247 18.025-50.51 19.142-2.361.102-4.725.151-7.08.151zm44.479-174.099c-47.111 0-94.275 9.033-126.739 27.204-26.075 14.596-39.993 33.997-40.248 56.106-.204 17.633 7.709 34.73 22.886 49.443 24.825 24.068 65.63 37.941 106.487 36.2 24.173-1.028 40.247-6.837 46.484-16.8 5.24-8.369 2.256-17.451.729-20.966a2.5 2.5 0 0 1 2.913-3.418c.254.065 25.709 6.547 54.021 10.63 36.965 5.331 61.916 4.25 72.153-3.125 3.172-2.285 4.837-5.122 5.092-8.672.05-.724.389-1.386.953-1.858 1.126-.944 2.46-.802 5.681-.457 5.825.623 16.671 1.783 23.376-3.794 3.492-2.905 5.497-7.444 5.96-13.493a2.503 2.503 0 0 1 1.008-1.82c.306-.229 7.34-5.613 6.796-16.179-.617-11.99-11.158-32.144-57.872-60.064-32.217-19.252-80.919-28.937-129.68-28.937zm148.767 126.955-.001.013.001-.013z"/><path d="M1326.081 897.124a2.5 2.5 0 0 1-2.496-2.397c-1.023-24.864-42.32-38.864-76.783-46.231-38.107-8.145-76.497-10.086-76.88-10.105a2.5 2.5 0 0 1-2.376-2.619c.067-1.379 1.265-2.435 2.618-2.375 6.379.31 156.238 8.199 158.417 61.124a2.5 2.5 0 0 1-2.5 2.603zm36.19-17.85a2.5 2.5 0 0 1-2.425-1.9c-14.628-59.164-164.379-72.878-165.89-73.009a2.5 2.5 0 1 1 .434-4.982c.385.034 38.905 3.472 78.784 14.43 54.182 14.889 84.976 35.87 91.525 62.36a2.5 2.5 0 0 1-2.428 3.101zm-170.465 22.69a2.5 2.5 0 0 1-2.246-1.399c-3.754-7.65-13.361-8.887-25.525-10.452-5.735-.738-12.237-1.575-18.879-3.212-15.444-3.798-34.64-13.778-35.449-14.201a2.5 2.5 0 1 1 2.314-4.432c.193.101 19.478 10.125 34.33 13.778 6.367 1.57 12.444 2.352 18.322 3.108 13.112 1.688 24.438 3.145 29.375 13.208a2.5 2.5 0 0 1-2.242 3.602z"/><path d="M610.364 279.014c0-44.38 31.23-80.359 69.75-80.359 38.51 0 69.74 35.979 69.74 80.359s-31.23 80.36-69.74 80.36c-38.52 0-69.75-35.98-69.75-80.36z" fill="#92acef"/><path d="M680.113 361.874c-39.839 0-72.25-37.171-72.25-82.86 0-45.688 32.411-82.859 72.25-82.859 39.833 0 72.24 37.17 72.24 82.859.001 45.689-32.407 82.86-72.24 82.86zm0-160.719c-37.082 0-67.25 34.927-67.25 77.859s30.168 77.86 67.25 77.86c37.076 0 67.24-34.928 67.24-77.86.001-42.932-30.163-77.859-67.24-77.859z"/><path d="m401.644 387.634-38.37 88.86s65.03 90.48 141.37 39.59l38.78-94.93" fill="#ffaac3"/><path d="M456.516 534.04c-17.34.001-35.007-5.518-52.518-16.553-25.914-16.331-42.079-38.595-42.755-39.535a2.5 2.5 0 0 1-.265-2.45l38.37-88.86a2.5 2.5 0 1 1 4.59 1.983l-37.794 87.527c3.628 4.723 18.739 23.413 40.637 37.18 33.062 20.784 65.301 21.15 95.84 1.093l38.488-94.216a2.5 2.5 0 1 1 4.629 1.891l-38.78 94.93a2.502 2.502 0 0 1-.928 1.135c-15.878 10.583-32.539 15.874-49.514 15.875z"/><path d="M345.724 240.624c12.76-96.194 94.98-164.124 183.65-151.726s150.21 100.429 137.45 196.626c-12.75 96.19-94.98 164.12-183.65 151.72s-150.21-100.43-137.45-196.62z" fill="#ffaac3"/><path d="M504.038 441.198c-7.057 0-14.136-.489-21.211-1.479-89.885-12.57-152.501-102.031-139.582-199.424l2.479.329-2.479-.329c6.518-49.136 31.906-93.776 69.656-122.474 34.2-25.999 75.688-37.149 116.817-31.399 89.887 12.568 152.503 102.032 139.583 199.431-6.513 49.129-31.896 93.765-69.645 122.463-28.319 21.531-61.643 32.88-95.618 32.882zm4.485-351.253c-32.889 0-65.154 10.996-92.596 31.856-36.697 27.897-61.382 71.326-67.726 119.151-12.56 94.679 48.144 181.625 135.318 193.815 39.799 5.564 79.975-5.24 113.111-30.432 36.694-27.897 61.375-71.322 67.713-119.14 12.561-94.685-48.144-181.633-135.317-193.821a147.982 147.982 0 0 0-20.503-1.429z"/><path d="M455.204 259.624c0-4.31 3.49-7.81 7.81-7.81 4.31 0 7.81 3.5 7.81 7.81 0 4.32-3.5 7.81-7.81 7.81-4.32 0-7.81-3.49-7.81-7.81zm120.4 2.52c0-4.32 3.49-7.82 7.81-7.82 4.31 0 7.81 3.5 7.81 7.82 0 4.31-3.5 7.81-7.81 7.81-4.32 0-7.81-3.5-7.81-7.81zm-27.086 37.763a2.488 2.488 0 0 1-1.755-.72c-12.418-12.239-26.432-2.505-27.023-2.084-1.12.799-2.683.542-3.485-.579s-.549-2.677.569-3.482c.179-.127 17.991-12.652 33.449 2.585a2.5 2.5 0 0 1-1.755 4.28zm-31.438 73.944c-22.902 0-27.932-20.308-27.98-20.517a2.501 2.501 0 0 1 4.866-1.148c.172.71 4.258 16.665 23.125 16.665.341 0 .686-.005 1.037-.016 20.007-.607 21.112-14.92 21.149-15.53a2.52 2.52 0 0 1 2.635-2.351 2.494 2.494 0 0 1 2.358 2.614c-.338 6.746-6.204 19.663-25.991 20.264-.404.013-.804.019-1.199.019z"/><path d="M394.784 331.594c0-21.59 17.51-39.1 39.11-39.1s39.1 17.51 39.1 39.1c0 21.6-17.5 39.11-39.1 39.11s-39.11-17.51-39.11-39.11zm172.49 1.23c0-21.6 17.51-39.11 39.11-39.11 21.59 0 39.1 17.51 39.1 39.11 0 21.59-17.51 39.1-39.1 39.1-21.6 0-39.11-17.51-39.11-39.1z" fill="#ff6996"/><path d="M342.004 234.494s127.59-15.541 260.54-111.429c0 0 57.64 31.992 66.12 124.329 0 0 82.64-143.79-59.94-182.921 0 0-77.78-73.039-193.53-13.329-92.98 47.962-96.58 144.215-73.19 183.35z" fill="#6f5490"/><path d="M668.664 249.894a2.5 2.5 0 0 1-2.49-2.272c-4.312-46.947-21.707-77.712-35.541-95.254-12.33-15.634-24.101-23.839-27.974-26.306-68.469 49.111-135.32 76.61-179.464 91.051-48.191 15.765-80.567 19.823-80.889 19.862a2.489 2.489 0 0 1-2.448-1.199c-10.33-17.283-18.341-51.669-6.92-91.7 8.137-28.52 28.813-68.179 81.108-95.154C474.6 17.686 524.73 23.041 556.123 33.035c31.595 10.058 50.607 26.282 53.844 29.188 39.718 11.026 65.871 31.229 77.743 60.058 6.653 16.157 12.102 43.931.271 84.496-7.037 24.129-16.741 41.151-17.15 41.863a2.501 2.501 0 0 1-2.167 1.254zm-66.12-129.329c.417 0 .834.104 1.213.314.606.336 15.026 8.467 30.627 28.172 13.488 17.037 30.241 46.142 35.855 89.814 9.157-18.978 30.662-71.45 12.84-114.699-11.313-27.453-36.553-46.726-75.018-57.283a2.506 2.506 0 0 1-1.048-.587c-.192-.18-19.578-18.099-52.634-28.569-30.448-9.645-79.114-14.76-138.04 15.638-50.707 26.156-70.728 64.512-78.594 92.083-10.674 37.414-3.825 69.486 5.582 86.339 7.088-1.026 36.768-5.825 78.457-19.475 44.062-14.425 110.934-41.971 179.296-91.276a2.514 2.514 0 0 1 1.464-.471z"/><path d="M243.014 272.624c0-44.385 31.22-80.362 69.74-80.362s69.75 35.977 69.75 80.362c0 44.38-31.23 80.35-69.75 80.35s-69.74-35.97-69.74-80.35z" fill="#92acef"/><path d="M312.754 355.473c-39.833 0-72.24-37.166-72.24-82.85 0-45.69 32.407-82.862 72.24-82.862 39.839 0 72.25 37.172 72.25 82.862 0 45.684-32.411 82.85-72.25 82.85zm0-160.711c-37.076 0-67.24 34.929-67.24 77.862 0 42.926 30.164 77.85 67.24 77.85 37.082 0 67.25-34.923 67.25-77.85 0-42.934-30.168-77.862-67.25-77.862z"/><path d="M710.366 207.789a2.5 2.5 0 0 1-2.485-2.803c.025-.212 2.533-21.557-1.411-49.862-3.625-26.012-13.602-63.416-40.545-93.89C633.049 24.05 582.693 5.13 516.259 5.001c-69.282-.125-122.112 18.792-156.899 56.257-50.021 53.871-44.971 128.398-44.913 129.145a2.501 2.501 0 0 1-2.303 2.683c-1.361.095-2.577-.924-2.683-2.3-.061-.786-1.424-19.544 3.547-45.406 4.592-23.888 15.718-58.457 42.648-87.481C391.304 19.478 445.09 0 515.521 0l.748.001c67.946.132 119.568 19.631 153.433 57.955 27.789 31.449 38.039 69.913 41.744 96.642 4.008 28.913 1.508 50.106 1.399 50.994a2.501 2.501 0 0 1-2.479 2.197zm-285.84 260.075c-.176 0-.354-.019-.532-.057-45.123-9.766-72.21-39.798-86.987-63.273-15.961-25.354-21.225-48.074-21.441-49.028a2.5 2.5 0 0 1 4.877-1.106c.051.227 5.336 22.965 20.884 47.61 14.263 22.607 40.365 51.525 83.727 60.91a2.5 2.5 0 0 1-.528 4.944z"/><path d="M421.334 469.494c0-8.64 8.88-15.65 19.83-15.65 10.96 0 19.84 7.01 19.84 15.65 0 8.65-8.88 15.65-19.84 15.65-10.95 0-19.83-7-19.83-15.65z"/><path d="M441.163 487.644c-12.312 0-22.329-8.142-22.329-18.15s10.017-18.15 22.329-18.15c12.318 0 22.341 8.142 22.341 18.15s-10.023 18.15-22.341 18.15zm0-31.3c-9.556 0-17.329 5.899-17.329 13.15s7.773 13.15 17.329 13.15c9.562 0 17.341-5.899 17.341-13.15s-7.779-13.15-17.341-13.15z"/><path d="M574.719 489.006c2.501 5.791 1.762 12.423.684 15.839-3.236 10.259-11.056 15.877-14.146 17.854" fill="#fbb348"/><path d="M561.259 525.2a2.501 2.501 0 0 1-1.349-4.607c3.699-2.367 10.32-7.657 13.11-16.5.86-2.731 1.704-8.773-.596-14.096a2.5 2.5 0 0 1 4.59-1.984c2.695 6.239 2.102 13.371.774 17.583-3.265 10.348-10.914 16.476-15.184 19.208a2.479 2.479 0 0 1-1.345.396z"/><path d="M329.062 514.406c-13.651-2.866-23.744-12.573-25.366-24-1.144-8.058 2.259-14.62 3.927-17.378" fill="#fbb348"/><path d="M329.064 516.907c-.171 0-.344-.018-.517-.054-14.563-3.058-25.545-13.544-27.327-26.095-1.139-8.018 1.69-14.771 4.264-19.024a2.501 2.501 0 0 1 4.278 2.589c-2.152 3.557-4.521 9.173-3.59 15.732 1.486 10.476 10.892 19.278 23.403 21.905a2.5 2.5 0 0 1-.511 4.947z"/></svg></g><g transform="translate(1893.0 617.0) rotate(0.0 372.5 232.5) scale(1.0 1.0)"><svg width="745" height="465" viewBox="0 0 745 465"><path d="M160.91 2.5C73.42 2.5 2.5 73.424 2.5 160.906v3.188C2.5 251.576 73.42 322.5 160.91 322.5H210l-87.5 140 210-140h251.59c87.49 0 158.41-70.924 158.41-158.406v-3.188C742.5 73.424 671.58 2.5 584.09 2.5z" fill="#cad5f3"/><path d="M122.501 465a2.5 2.5 0 0 1-2.121-3.825L205.489 325H160.91C72.184 325 0 252.817 0 164.094v-3.188C0 72.183 72.184 0 160.91 0h423.18C672.816 0 745 72.183 745 160.906v3.188C745 252.817 672.816 325 584.09 325H333.257l-209.37 139.58c-.423.282-.906.42-1.386.42zM160.91 5C74.941 5 5 74.939 5 160.906v3.188C5 250.061 74.941 320 160.91 320H210a2.5 2.5 0 0 1 2.121 3.825l-81.347 130.154 200.34-133.56c.41-.273.894-.42 1.387-.42h251.59C670.059 320 740 250.061 740 164.094v-3.188C740 74.939 670.059 5 584.09 5z"/><path d="M602.5 65h-280a2.5 2.5 0 1 1 0-5h280a2.5 2.5 0 1 1 0 5zm40 60h-360a2.5 2.5 0 1 1 0-5h360a2.5 2.5 0 1 1 0 5zm-20 60h-240a2.5 2.5 0 1 1 0-5h240a2.5 2.5 0 1 1 0 5z"/><path d="M80.5 181.5c0-44.735 36.26-81 81-81s81 36.265 81 81-36.26 81-81 81-81-36.265-81-81z" fill="#fbb348"/><path d="M162.499 232.5a9.998 9.998 0 0 1-8.319-4.453l-40-60c-3.063-4.595-1.822-10.804 2.773-13.867s10.804-1.822 13.867 2.773l31.025 46.537 71.972-125.951c2.74-4.795 8.851-6.463 13.644-3.722 4.796 2.74 6.462 8.849 3.722 13.644l-80 140a10 10 0 0 1-8.684 5.039z" fill="#ef4910"/></svg></g><g transform="translate(2415.0 893.0) rotate(0.0 332.5 204.5) scale(1.0 1.0)"><svg width="665" height="409" viewBox="0 0 665 409"><path d="M134.5 2.5c-72.9 0-132 59.098-132 132 0 72.9 59.1 132 132 132h273l175 140-70-140h18c72.9 0 132-59.1 132-132 0-72.902-59.1-132-132-132z" fill="#ffaac3"/><path d="M582.5 409a2.498 2.498 0 0 1-1.562-.548L406.623 269H134.5C60.335 269 0 208.664 0 134.5S60.335 0 134.5 0h396C604.664 0 665 60.336 665 134.5S604.664 269 530.5 269h-13.955l68.191 136.382A2.501 2.501 0 0 1 582.5 409zM134.5 5C63.093 5 5 63.094 5 134.5S63.093 264 134.5 264h273c.567 0 1.118.193 1.562.548l166.112 132.89-64.91-129.819A2.501 2.501 0 0 1 512.5 264h18c71.406 0 129.5-58.094 129.5-129.5S601.906 5 530.5 5z"/><path d="M422.5 89h-260a2.5 2.5 0 1 1 0-5h260a2.5 2.5 0 1 1 0 5zm0 60h-160a2.5 2.5 0 1 1 0-5h160a2.5 2.5 0 1 1 0 5zm-20 60h-240a2.5 2.5 0 1 1 0-5h240a2.5 2.5 0 1 1 0 5z"/><path d="M542.5 214a27.504 27.504 0 0 1-22.882-12.246l-40-60c-8.424-12.637-5.01-29.711 7.628-38.136 12.635-8.424 29.71-5.01 38.136 7.628l17.118 25.678 17.118-25.678c8.425-12.638 25.5-16.051 38.136-7.628 12.638 8.425 16.052 25.499 7.628 38.136l-40 60A27.502 27.502 0 0 1 542.5 214z" fill="#ef4910"/></svg></g><g transform="translate(1533.0 1258.0) rotate(0.0 562.5 222.5) scale(1.0 1.0)"><svg width="1125" height="445" viewBox="0 0 1125 445"><path d="M2.5 382.5h420v60H2.5z" fill="#cad5f3"/><path d="M422.5 445H2.5a2.5 2.5 0 0 1-2.5-2.5v-60a2.5 2.5 0 0 1 2.5-2.5h420a2.5 2.5 0 0 1 2.5 2.5v60a2.5 2.5 0 0 1-2.5 2.5zM5 440h415v-55H5z"/><path d="m382.5 442.5 140-440h600l-140 440z" fill="#cad5f3"/><path d="M982.5 445h-600a2.502 2.502 0 0 1-2.382-3.257l140-440A2.498 2.498 0 0 1 522.5 0h600a2.499 2.499 0 0 1 2.382 3.257l-140 440A2.5 2.5 0 0 1 982.5 445zm-596.582-5h594.753l138.41-435H524.328z"/><path d="M722.5 232.5c0-27.61 22.39-50 50-50s50 22.39 50 50-22.39 50-50 50-50-22.39-50-50z" fill="#92acef"/><path d="M772.5 285c-28.948 0-52.5-23.552-52.5-52.5s23.552-52.5 52.5-52.5 52.5 23.552 52.5 52.5-23.552 52.5-52.5 52.5zm0-100c-26.191 0-47.5 21.309-47.5 47.5s21.309 47.5 47.5 47.5 47.5-21.309 47.5-47.5-21.309-47.5-47.5-47.5z"/></svg></g><g transform="translate(955.0 1698.0) rotate(0.0 1042.5 442.5) scale(1.0 1.0)"><svg width="2085" height="885" viewBox="0 0 2085 885"><path d="M222.5 2.5h1640v60h-1640z" fill="#fff"/><path d="M1862.5 65h-1640a2.5 2.5 0 0 1-2.5-2.5v-60a2.5 2.5 0 0 1 2.5-2.5h1640a2.5 2.5 0 0 1 2.5 2.5v60a2.5 2.5 0 0 1-2.5 2.5zM225 60h1635V5H225z"/><path d="m422.5 62.5-420 820h60l420-820z" fill="#fff"/><path d="M62.5 885h-60a2.5 2.5 0 0 1-2.226-3.639l420-820a2.5 2.5 0 0 1 2.226-1.36h60a2.5 2.5 0 0 1 2.226 3.639l-420 820A2.503 2.503 0 0 1 62.5 885zm-55.912-5h54.383l417.44-815h-54.383z"/><path d="m1662.5 62.5 420 820h-60l-420-820z" fill="#fff"/><path d="M2082.5 885h-60a2.502 2.502 0 0 1-2.226-1.36l-420-820a2.502 2.502 0 0 1 2.226-3.639h60c.938 0 1.798.525 2.226 1.36l420 820A2.502 2.502 0 0 1 2082.5 885zm-58.472-5h54.383l-417.44-815h-54.383z"/></svg></g></svg>